<?xml version="1.0" encoding="UTF-8"?>
<svg width="40px" height="40px" viewBox="0 0 40 40" version="1.1" xmlns="http://www.w3.org/2000/svg" xmlns:xlink="http://www.w3.org/1999/xlink">
    <!-- Generator: Sketch 62 (91390) - https://sketch.com -->
    <title>broadcast copy</title>
    <desc>Created with Sketch.</desc>
    <g id="Page-1" stroke="none" stroke-width="1" fill="none" fill-rule="evenodd">
        <g id="broadcast-copy" fill="#C5C5C5" fill-rule="nonzero">
            <path d="M37.4917602,14.6502686 L30.4464722,20.0039673 L30.4464722,15.8944702 C30.4464722,15.0314331 29.7470093,14.3319702 28.8839722,14.3319702 L1.5625,14.3319702 C0.699462891,14.3319702 -1.42108547e-14,15.0314331 -1.42108547e-14,15.8944702 L-1.42108547e-14,38.4371948 C-1.42108547e-14,39.2999267 0.699462891,39.9993897 1.5625,39.9993897 L28.8839722,39.9993897 C29.7470093,39.9993897 30.4464722,39.2999267 30.4464722,38.4371948 L30.4464722,34.3273926 L37.4917602,39.6810913 C38.5110473,40.4556274 39.9996948,39.7335816 39.9996948,38.4371948 L39.9996948,15.8944702 C39.9996948,14.6051025 38.5192871,13.8693238 37.4917602,14.6502686 L37.4917602,14.6502686 Z M27.3214722,36.8746948 L3.125,36.8746948 L3.125,17.4569702 L27.3214722,17.4569702 L27.3214722,36.8746948 Z M36.8746948,35.2871704 L30.4464722,30.4025269 L30.4464722,23.9291382 L36.8746948,19.0441895 L36.8746948,35.2871704 Z M1.87225344,6.1904907 C5.12634281,2.25646969 9.91119383,-2.22044605e-15 14.9996948,-2.22044605e-15 C20.0881958,-2.22044605e-15 24.8730469,2.25646969 28.1274414,6.1904907 C28.6773681,6.85546875 28.5842895,7.84057617 27.9193116,8.39050297 C27.2561645,8.93890383 26.270752,8.84918211 25.7192993,8.18237305 C23.0609131,4.96826172 19.1537476,3.125 14.9996948,3.125 C10.8459473,3.125 6.93878172,4.96826172 4.28039547,8.18237305 C3.73046875,8.84735109 2.74536133,8.94073484 2.08038328,8.39050297 C1.41540531,7.84057617 1.32232664,6.85546875 1.87225344,6.1904907 Z M21.1587524,10.8575439 C20.7061767,11.590271 19.7439575,11.8203735 19.0081787,11.3659668 C17.8048706,10.6228637 16.4187622,10.2301025 14.9996948,10.2301025 C13.5809327,10.2301025 12.1948242,10.6228637 10.9912109,11.3659668 C10.256958,11.819458 9.29443359,11.5917969 8.84094234,10.8575439 C8.38745117,10.123291 8.61511234,9.16046141 9.34936523,8.70727539 C11.046753,7.65899656 13.0004883,7.1051025 14.9996948,7.1051025 C16.9992066,7.1051025 18.9529419,7.65899656 20.6500244,8.70727539 C21.3842773,9.16046141 21.6119384,10.123291 21.1587524,10.8575439 Z" id="Shape"></path>
        </g>
    </g>
</svg>