<?xml version="1.0" encoding="UTF-8"?>
<svg width="387px" height="299px" viewBox="0 0 387 299" version="1.1" xmlns="http://www.w3.org/2000/svg" xmlns:xlink="http://www.w3.org/1999/xlink">
    <!-- Generator: Sketch 52.6 (67491) - http://www.bohemiancoding.com/sketch -->
    <title>Group 13</title>
    <desc>Created with Sketch.</desc>
    <defs>
        <rect id="path-1" x="0" y="0" width="387" height="299" rx="11"></rect>
    </defs>
    <g id="Page-1" stroke="none" stroke-width="1" fill="none" fill-rule="evenodd">
        <g id="Distributions-in-Progress-Copy" transform="translate(-943.000000, -210.000000)">
            <g id="Group-13" transform="translate(943.000000, 210.000000)">
                <g id="Group-12">
                    <g id="Rectangle-2">
                        <g id="Group-8">
                            <mask id="mask-2" fill="white">
                                <use xlink:href="#path-1"></use>
                            </mask>
                            <use id="Rectangle" fill="#FFFFFF" xlink:href="#path-1"></use>
                            <rect id="Rectangle" fill="#000000" opacity="0" mask="url(#mask-2)" transform="translate(347.000000, 66.000000) rotate(-90.000000) translate(-347.000000, -66.000000) " x="335" y="54" width="24" height="24"></rect>
                            <g id="Group-14" mask="url(#mask-2)" fill="#062858">
                                <g transform="translate(345.000000, 57.000000)" id="Oval">
                                    <circle cx="2" cy="9" r="2"></circle>
                                    <circle cx="2" cy="2" r="2"></circle>
                                    <circle cx="2" cy="16" r="2"></circle>
                                </g>
                            </g>
                            <path d="M52.072,159.439 C52.072,160.791 50.967,162.091 48.952,162.091 C47.145,162.091 45.754,161.103 45.754,159.504 L47.34,159.504 C47.405,160.245 47.925,160.843 48.952,160.843 C49.992,160.843 50.577,160.284 50.577,159.517 C50.577,157.333 45.78,158.75 45.78,155.422 C45.78,153.836 47.041,152.848 48.887,152.848 C50.616,152.848 51.838,153.758 51.968,155.305 L50.33,155.305 C50.278,154.694 49.745,154.135 48.809,154.109 C47.951,154.083 47.288,154.499 47.288,155.37 C47.288,157.411 52.072,156.137 52.072,159.439 Z M52.9801429,158.412 C52.9801429,156.176 54.4361429,154.72 56.4901429,154.72 C58.2451429,154.72 59.3891429,155.591 59.7921429,157.099 L58.1931429,157.099 C57.9461429,156.41 57.3741429,155.968 56.4901429,155.968 C55.2941429,155.968 54.5011429,156.852 54.5011429,158.412 C54.5011429,159.985 55.2941429,160.869 56.4901429,160.869 C57.3741429,160.869 57.9201429,160.479 58.1931429,159.738 L59.7921429,159.738 C59.3891429,161.142 58.2451429,162.117 56.4901429,162.117 C54.4361429,162.117 52.9801429,160.661 52.9801429,158.412 Z M60.9212858,162 L60.9212858,152.38 L62.4032858,152.38 L62.4032858,155.669 C62.8972858,155.071 63.7032858,154.72 64.6262858,154.72 C66.2252858,154.72 67.4732858,155.773 67.4732858,157.775 L67.4732858,162 L66.0042858,162 L66.0042858,157.996 C66.0042858,156.683 65.2892858,156.007 64.2102858,156.007 C63.1182858,156.007 62.4032858,156.683 62.4032858,157.996 L62.4032858,162 L60.9212858,162 Z M72.0214287,155.968 C71.0204287,155.968 70.2144287,156.644 70.0584287,157.775 L74.0234287,157.775 C73.9974287,156.67 73.1264287,155.968 72.0214287,155.968 Z M75.3754287,159.868 C74.9724287,161.116 73.8414287,162.117 72.0864287,162.117 C70.0324287,162.117 68.5114287,160.661 68.5114287,158.412 C68.5114287,156.163 69.9674287,154.72 72.0864287,154.72 C74.1274287,154.72 75.5704287,156.137 75.5704287,158.243 C75.5704287,158.49 75.5574287,158.724 75.5184287,158.971 L70.0454287,158.971 C70.1494287,160.154 70.9944287,160.869 72.0864287,160.869 C72.9964287,160.869 73.5034287,160.427 73.7764287,159.868 L75.3754287,159.868 Z M76.1795716,158.386 C76.1795716,156.176 77.6745716,154.72 79.5725716,154.72 C80.5085716,154.72 81.4965716,155.162 82.0425716,155.838 L82.0425716,152.38 L83.5375716,152.38 L83.5375716,162 L82.0425716,162 L82.0425716,160.921 C81.5875716,161.571 80.7295716,162.117 79.5595716,162.117 C77.6745716,162.117 76.1795716,160.596 76.1795716,158.386 Z M82.0425716,158.412 C82.0425716,156.878 80.9895716,156.007 79.8715716,156.007 C78.7665716,156.007 77.7005716,156.839 77.7005716,158.386 C77.7005716,159.933 78.7665716,160.83 79.8715716,160.83 C80.9895716,160.83 82.0425716,159.959 82.0425716,158.412 Z M91.6217145,154.837 L91.6217145,162 L90.1397145,162 L90.1397145,161.142 C89.6717145,161.753 88.8657145,162.104 88.0207145,162.104 C86.3437145,162.104 85.0697145,161.051 85.0697145,159.049 L85.0697145,154.837 L86.5387145,154.837 L86.5387145,158.828 C86.5387145,160.141 87.2537145,160.817 88.3327145,160.817 C89.4247145,160.817 90.1397145,160.141 90.1397145,158.828 L90.1397145,154.837 L91.6217145,154.837 Z M93.2188574,162 L93.2188574,152.38 L94.7008574,152.38 L94.7008574,162 L93.2188574,162 Z M99.3140003,155.968 C98.3130003,155.968 97.5070003,156.644 97.3510003,157.775 L101.316,157.775 C101.29,156.67 100.419,155.968 99.3140003,155.968 Z M102.668,159.868 C102.265,161.116 101.134,162.117 99.3790003,162.117 C97.3250003,162.117 95.8040003,160.661 95.8040003,158.412 C95.8040003,156.163 97.2600003,154.72 99.3790003,154.72 C101.42,154.72 102.863,156.137 102.863,158.243 C102.863,158.49 102.85,158.724 102.811,158.971 L97.3380003,158.971 C97.4420003,160.154 98.2870003,160.869 99.3790003,160.869 C100.289,160.869 100.796,160.427 101.069,159.868 L102.668,159.868 Z M103.472143,158.386 C103.472143,156.176 104.967143,154.72 106.865143,154.72 C107.801143,154.72 108.789143,155.162 109.335143,155.838 L109.335143,152.38 L110.830143,152.38 L110.830143,162 L109.335143,162 L109.335143,160.921 C108.880143,161.571 108.022143,162.117 106.852143,162.117 C104.967143,162.117 103.472143,160.596 103.472143,158.386 Z M109.335143,158.412 C109.335143,156.878 108.282143,156.007 107.164143,156.007 C106.059143,156.007 104.993143,156.839 104.993143,158.386 C104.993143,159.933 106.059143,160.83 107.164143,160.83 C108.282143,160.83 109.335143,159.959 109.335143,158.412 Z M122.279429,158.412 C122.279429,160.661 120.615429,162.117 118.561429,162.117 C116.520429,162.117 114.973429,160.661 114.973429,158.412 C114.973429,156.163 116.585429,154.72 118.626429,154.72 C120.667429,154.72 122.279429,156.163 122.279429,158.412 Z M116.481429,158.412 C116.481429,160.037 117.443429,160.83 118.561429,160.83 C119.666429,160.83 120.758429,160.037 120.758429,158.412 C120.758429,156.787 119.705429,156.007 118.600429,156.007 C117.482429,156.007 116.481429,156.787 116.481429,158.412 Z M128.478572,162 L128.478572,157.996 C128.478572,156.683 127.763572,156.007 126.684572,156.007 C125.592572,156.007 124.877572,156.683 124.877572,157.996 L124.877572,162 L123.395572,162 L123.395572,154.837 L124.877572,154.837 L124.877572,155.656 C125.358572,155.071 126.151572,154.72 127.009572,154.72 C128.686572,154.72 129.947572,155.773 129.947572,157.775 L129.947572,162 L128.478572,162 Z M137.457858,152.965 C140.356858,152.965 142.254858,154.72 142.254858,157.515 C142.254858,160.297 140.356858,162 137.457858,162 L134.506858,162 L134.506858,152.965 L137.457858,152.965 Z M135.988858,160.791 L137.457858,160.791 C139.589858,160.791 140.733858,159.569 140.733858,157.515 C140.733858,155.448 139.589858,154.174 137.457858,154.174 L135.988858,154.174 L135.988858,160.791 Z M146.387001,155.968 C145.386001,155.968 144.580001,156.644 144.424001,157.775 L148.389001,157.775 C148.363001,156.67 147.492001,155.968 146.387001,155.968 Z M149.741001,159.868 C149.338001,161.116 148.207001,162.117 146.452001,162.117 C144.398001,162.117 142.877001,160.661 142.877001,158.412 C142.877001,156.163 144.333001,154.72 146.452001,154.72 C148.493001,154.72 149.936001,156.137 149.936001,158.243 C149.936001,158.49 149.923001,158.724 149.884001,158.971 L144.411001,158.971 C144.515001,160.154 145.360001,160.869 146.452001,160.869 C147.362001,160.869 147.869001,160.427 148.142001,159.868 L149.741001,159.868 Z M150.545143,158.412 C150.545143,156.176 152.001144,154.72 154.055144,154.72 C155.810144,154.72 156.954144,155.591 157.357144,157.099 L155.758144,157.099 C155.511144,156.41 154.939144,155.968 154.055144,155.968 C152.859144,155.968 152.066144,156.852 152.066144,158.412 C152.066144,159.985 152.859144,160.869 154.055144,160.869 C154.939144,160.869 155.485144,160.479 155.758144,159.738 L157.357144,159.738 C156.954144,161.142 155.810144,162.117 154.055144,162.117 C152.001144,162.117 150.545143,160.661 150.545143,158.412 Z M161.502286,155.968 C160.501286,155.968 159.695286,156.644 159.539286,157.775 L163.504286,157.775 C163.478286,156.67 162.607286,155.968 161.502286,155.968 Z M164.856286,159.868 C164.453286,161.116 163.322286,162.117 161.567286,162.117 C159.513286,162.117 157.992286,160.661 157.992286,158.412 C157.992286,156.163 159.448286,154.72 161.567286,154.72 C163.608286,154.72 165.051286,156.137 165.051286,158.243 C165.051286,158.49 165.038286,158.724 164.999286,158.971 L159.526286,158.971 C159.630286,160.154 160.475286,160.869 161.567286,160.869 C162.477286,160.869 162.984286,160.427 163.257286,159.868 L164.856286,159.868 Z M176.307429,162 L176.307429,157.996 C176.307429,156.683 175.592429,156.007 174.513429,156.007 C173.421429,156.007 172.706429,156.683 172.706429,157.996 L172.706429,162 L171.237429,162 L171.237429,157.996 C171.237429,156.683 170.522429,156.007 169.443429,156.007 C168.351429,156.007 167.636429,156.683 167.636429,157.996 L167.636429,162 L166.154429,162 L166.154429,154.837 L167.636429,154.837 L167.636429,155.656 C168.117429,155.071 168.897429,154.72 169.755429,154.72 C170.886429,154.72 171.835429,155.201 172.329429,156.137 C172.771429,155.266 173.785429,154.72 174.825429,154.72 C176.502429,154.72 177.776429,155.773 177.776429,157.775 L177.776429,162 L176.307429,162 Z M180.790572,155.903 C181.258572,155.253 182.155572,154.72 183.286572,154.72 C185.184572,154.72 186.653572,156.176 186.653572,158.386 C186.653572,160.596 185.171572,162.117 183.286572,162.117 C182.103572,162.117 181.258572,161.584 180.790572,160.96 L180.790572,162 L179.308572,162 L179.308572,152.38 L180.790572,152.38 L180.790572,155.903 Z M185.145572,158.386 C185.145572,156.839 184.079572,156.007 182.961572,156.007 C181.856572,156.007 180.790572,156.878 180.790572,158.412 C180.790572,159.959 181.856572,160.83 182.961572,160.83 C184.079572,160.83 185.145572,159.933 185.145572,158.386 Z M190.785715,155.968 C189.784715,155.968 188.978715,156.644 188.822715,157.775 L192.787715,157.775 C192.761715,156.67 191.890715,155.968 190.785715,155.968 Z M194.139715,159.868 C193.736715,161.116 192.605715,162.117 190.850715,162.117 C188.796715,162.117 187.275715,160.661 187.275715,158.412 C187.275715,156.163 188.731715,154.72 190.850715,154.72 C192.891715,154.72 194.334715,156.137 194.334715,158.243 C194.334715,158.49 194.321715,158.724 194.282715,158.971 L188.809715,158.971 C188.913715,160.154 189.758715,160.869 190.850715,160.869 C191.760715,160.869 192.267715,160.427 192.540715,159.868 L194.139715,159.868 Z M196.919858,158.23 L196.919858,162 L195.437858,162 L195.437858,154.837 L196.919858,154.837 L196.919858,155.877 C197.335858,155.162 198.050858,154.72 199.064858,154.72 L199.064858,156.254 L198.687858,156.254 C197.595858,156.254 196.919858,156.709 196.919858,158.23 Z M207.433144,162 L207.433144,160.024 L202.727144,160.024 L202.727144,158.906 L207.095144,152.64 L208.889144,152.64 L208.889144,158.737 L210.098144,158.737 L210.098144,160.024 L208.889144,160.024 L208.889144,162 L207.433144,162 Z M204.430144,158.737 L207.498144,158.737 L207.498144,154.148 L204.430144,158.737 Z M210.252287,163.807 L211.175287,160.219 L212.787287,160.219 L211.214287,163.807 L210.252287,163.807 Z M216.449572,161.87 L216.449572,160.791 C218.685572,158.828 221.038572,157.112 221.038572,155.253 C221.038572,154.265 220.609572,153.589 219.504572,153.589 C218.464572,153.589 217.905572,154.317 217.866572,155.383 L216.436572,155.383 C216.488572,153.329 217.814572,152.328 219.491572,152.328 C221.415572,152.328 222.507572,153.485 222.507572,155.188 C222.507572,157.489 220.167572,159.244 218.646572,160.635 L222.767572,160.635 L222.767572,161.87 L216.449572,161.87 Z M223.714715,157.138 C223.714715,154.434 224.442715,152.354 227.094715,152.354 C229.746715,152.354 230.474715,154.434 230.474715,157.138 C230.474715,159.894 229.746715,161.974 227.094715,161.974 C224.442715,161.974 223.714715,159.894 223.714715,157.138 Z M229.018715,157.138 C229.018715,155.37 228.823715,153.706 227.094715,153.706 C225.365715,153.706 225.170715,155.37 225.170715,157.138 C225.170715,158.997 225.365715,160.622 227.094715,160.622 C228.823715,160.622 229.018715,158.997 229.018715,157.138 Z M232.708858,162 L232.708858,153.875 L231.499858,153.875 L231.499858,152.523 L234.203858,152.523 L234.203858,162 L232.708858,162 Z M236.373001,159.426 L237.738001,159.426 C237.907001,160.271 238.466001,160.752 239.454001,160.752 C240.637001,160.752 241.235001,159.959 241.235001,157.541 C240.806001,158.139 239.987001,158.464 239.129001,158.464 C237.465001,158.464 236.113001,157.437 236.113001,155.435 C236.113001,153.55 237.270001,152.302 239.259001,152.302 C241.703001,152.302 242.522001,153.979 242.522001,157.086 C242.522001,160.284 241.846001,161.987 239.363001,161.987 C237.400001,161.987 236.490001,160.778 236.373001,159.426 Z M239.389001,157.216 C240.442001,157.216 241.066001,156.501 241.066001,155.435 C241.066001,154.226 240.377001,153.537 239.298001,153.537 C238.193001,153.537 237.530001,154.304 237.530001,155.396 C237.530001,156.371 238.076001,157.216 239.389001,157.216 Z M246.561287,152.562 L252.827287,152.562 L252.827287,153.667 L249.213287,162 L247.718287,162 L251.371287,153.823 L246.561287,153.823 L246.561287,152.562 Z M255.47743,161.142 C255.47743,161.675 255.06143,162.091 254.54143,162.091 C254.00843,162.091 253.59243,161.675 253.59243,161.142 C253.59243,160.609 254.00843,160.193 254.54143,160.193 C255.06143,160.193 255.47743,160.609 255.47743,161.142 Z M255.47743,155.682 C255.47743,156.215 255.06143,156.631 254.54143,156.631 C254.00843,156.631 253.59243,156.215 253.59243,155.682 C253.59243,155.149 254.00843,154.733 254.54143,154.733 C255.06143,154.733 255.47743,155.149 255.47743,155.682 Z M261.104573,162 L261.104573,160.024 L256.398573,160.024 L256.398573,158.906 L260.766573,152.64 L262.560573,152.64 L262.560573,158.737 L263.769573,158.737 L263.769573,160.024 L262.560573,160.024 L262.560573,162 L261.104573,162 Z M258.101573,158.737 L261.169573,158.737 L261.169573,154.148 L258.101573,158.737 Z M271.099716,154.72 L269.734716,154.72 C269.552716,153.953 269.097716,153.524 268.161716,153.524 C266.822716,153.524 266.133716,154.434 266.094716,156.917 C266.562716,156.137 267.498716,155.721 268.486716,155.721 C270.189716,155.721 271.398716,156.865 271.398716,158.841 C271.398716,160.635 270.319716,162 268.291716,162 C265.535716,162 264.820716,160.063 264.820716,157.047 C264.820716,154.083 265.808716,152.289 268.174716,152.289 C270.020716,152.289 270.943716,153.459 271.099716,154.72 Z M268.161716,156.969 C267.186716,156.969 266.263716,157.554 266.263716,158.815 C266.263716,159.985 266.952716,160.765 268.213716,160.765 C269.305716,160.765 269.981716,160.024 269.981716,158.906 C269.981716,157.775 269.409716,156.969 268.161716,156.969 Z M277.336002,157.125 L278.974002,157.125 C280.131002,157.125 280.651002,156.566 280.651002,155.656 C280.651002,154.72 280.131002,154.174 278.974002,154.174 L277.336002,154.174 L277.336002,157.125 Z M282.172002,155.656 C282.172002,156.943 281.327002,158.334 278.974002,158.334 L277.336002,158.334 L277.336002,162 L275.854002,162 L275.854002,152.965 L278.974002,152.965 C281.119002,152.965 282.172002,154.187 282.172002,155.656 Z M283.236144,162 L283.236144,152.965 L284.835144,152.965 L288.007144,160.05 L291.166144,152.965 L292.752144,152.965 L292.752144,162 L291.270144,162 L291.270144,155.812 L288.514144,162 L287.487144,162 L284.718144,155.812 L284.718144,162 L283.236144,162 Z" id="Scheduled-on-Decembe" fill="#8786AD" mask="url(#mask-2)"></path>
                            <path d="M47.2,179.88 L49.024,179.88 L49.024,189.528 L52.784,189.528 L52.784,191 L47.2,191 L47.2,179.88 Z M53.856,181.528 L53.648,178.248 L55.296,178.248 L55.104,181.528 L53.856,181.528 Z M67.808,185.416 C67.808,188.76 65.296,191.112 62.128,191.112 C58.992,191.112 56.448,188.76 56.448,185.416 C56.448,182.088 58.992,179.736 62.128,179.736 C65.296,179.736 67.808,182.088 67.808,185.416 Z M58.32,185.416 C58.32,187.928 59.92,189.528 62.128,189.528 C64.336,189.528 65.936,187.928 65.936,185.416 C65.936,182.904 64.336,181.336 62.128,181.336 C59.92,181.336 58.32,182.904 58.32,185.416 Z M71.424,186.36 L71.424,191 L69.6,191 L69.6,182.184 L71.424,182.184 L71.424,183.464 C71.936,182.584 72.816,182.04 74.064,182.04 L74.064,183.928 L73.6,183.928 C72.256,183.928 71.424,184.488 71.424,186.36 Z M79.456,183.576 C78.224,183.576 77.232,184.408 77.04,185.8 L81.92,185.8 C81.888,184.44 80.816,183.576 79.456,183.576 Z M83.584,188.376 C83.088,189.912 81.696,191.144 79.536,191.144 C77.008,191.144 75.136,189.352 75.136,186.584 C75.136,183.816 76.928,182.04 79.536,182.04 C82.048,182.04 83.824,183.784 83.824,186.376 C83.824,186.68 83.808,186.968 83.76,187.272 L77.024,187.272 C77.152,188.728 78.192,189.608 79.536,189.608 C80.656,189.608 81.28,189.064 81.616,188.376 L83.584,188.376 Z M85.008,186.552 C85.008,183.832 86.848,182.04 89.168,182.04 C90.656,182.04 91.68,182.744 92.224,183.464 L92.224,182.184 L94.064,182.184 L94.064,191 L92.224,191 L92.224,189.688 C91.664,190.44 90.608,191.144 89.136,191.144 C86.848,191.144 85.008,189.272 85.008,186.552 Z M92.224,186.584 C92.224,184.696 90.928,183.624 89.552,183.624 C88.192,183.624 86.88,184.648 86.88,186.552 C86.88,188.456 88.192,189.56 89.552,189.56 C90.928,189.56 92.224,188.488 92.224,186.584 Z M96.464,191 L96.464,179.16 L98.288,179.16 L98.288,191 L96.464,191 Z" id="L'Oreal" fill="#33334F" mask="url(#mask-2)"></path>
                            <path d="M124.208,191 L124.208,181 L122.72,181 L122.72,179.336 L126.048,179.336 L126.048,191 L124.208,191 Z M128.416,190.84 L128.416,189.512 C131.168,187.096 134.064,184.984 134.064,182.696 C134.064,181.48 133.536,180.648 132.176,180.648 C130.896,180.648 130.208,181.544 130.16,182.856 L128.4,182.856 C128.464,180.328 130.096,179.096 132.16,179.096 C134.528,179.096 135.872,180.52 135.872,182.616 C135.872,185.448 132.992,187.608 131.12,189.32 L136.192,189.32 L136.192,190.84 L128.416,190.84 Z M137.76,182.216 C137.888,180.2 139.456,179.064 141.584,179.064 C143.904,179.064 145.168,180.408 145.168,182.104 C145.168,183.496 144.288,184.44 143.376,184.744 L143.376,184.808 C144.592,185.176 145.376,186.184 145.376,187.8 C145.376,189.656 144.064,191.064 141.632,191.064 C139.424,191.064 137.712,189.912 137.6,187.624 L139.36,187.624 C139.44,188.712 140.24,189.544 141.616,189.544 C142.976,189.544 143.648,188.712 143.648,187.624 C143.648,186.088 142.656,185.56 140.752,185.56 L140.336,185.56 L140.336,184.056 L140.768,184.056 C142.416,184.04 143.424,183.56 143.424,182.312 C143.424,181.304 142.768,180.632 141.52,180.632 C140.24,180.632 139.648,181.4 139.536,182.216 L137.76,182.216 Z M148.544,191 L148.544,181 L147.056,181 L147.056,179.336 L150.384,179.336 L150.384,191 L148.544,191 Z M152.752,190.84 L152.752,189.512 C155.504,187.096 158.4,184.984 158.4,182.696 C158.4,181.48 157.872,180.648 156.512,180.648 C155.232,180.648 154.544,181.544 154.496,182.856 L152.736,182.856 C152.8,180.328 154.432,179.096 156.496,179.096 C158.864,179.096 160.208,180.52 160.208,182.616 C160.208,185.448 157.328,187.608 155.456,189.32 L160.528,189.32 L160.528,190.84 L152.752,190.84 Z M162.096,182.216 C162.224,180.2 163.792,179.064 165.92,179.064 C168.24,179.064 169.504,180.408 169.504,182.104 C169.504,183.496 168.624,184.44 167.712,184.744 L167.712,184.808 C168.928,185.176 169.712,186.184 169.712,187.8 C169.712,189.656 168.4,191.064 165.968,191.064 C163.76,191.064 162.048,189.912 161.936,187.624 L163.696,187.624 C163.776,188.712 164.576,189.544 165.952,189.544 C167.312,189.544 167.984,188.712 167.984,187.624 C167.984,186.088 166.992,185.56 165.088,185.56 L164.672,185.56 L164.672,184.056 L165.104,184.056 C166.752,184.04 167.76,183.56 167.76,182.312 C167.76,181.304 167.104,180.632 165.856,180.632 C164.576,180.632 163.984,181.4 163.872,182.216 L162.096,182.216 Z M172.88,191 L172.88,181 L171.392,181 L171.392,179.336 L174.72,179.336 L174.72,191 L172.88,191 Z M177.824,187.832 L179.504,187.832 C179.712,188.872 180.4,189.464 181.616,189.464 C183.072,189.464 183.808,188.488 183.808,185.512 C183.28,186.248 182.272,186.648 181.216,186.648 C179.168,186.648 177.504,185.384 177.504,182.92 C177.504,180.6 178.928,179.064 181.376,179.064 C184.384,179.064 185.392,181.128 185.392,184.952 C185.392,188.888 184.56,190.984 181.504,190.984 C179.088,190.984 177.968,189.496 177.824,187.832 Z M181.536,185.112 C182.832,185.112 183.6,184.232 183.6,182.92 C183.6,181.432 182.752,180.584 181.424,180.584 C180.064,180.584 179.248,181.528 179.248,182.872 C179.248,184.072 179.92,185.112 181.536,185.112 Z M188.64,191 L188.64,181 L187.152,181 L187.152,179.336 L190.48,179.336 L190.48,191 L188.64,191 Z M192.96,182.216 C193.088,180.2 194.656,179.064 196.784,179.064 C199.104,179.064 200.368,180.408 200.368,182.104 C200.368,183.496 199.488,184.44 198.576,184.744 L198.576,184.808 C199.792,185.176 200.576,186.184 200.576,187.8 C200.576,189.656 199.264,191.064 196.832,191.064 C194.624,191.064 192.912,189.912 192.8,187.624 L194.56,187.624 C194.64,188.712 195.44,189.544 196.816,189.544 C198.176,189.544 198.848,188.712 198.848,187.624 C198.848,186.088 197.856,185.56 195.952,185.56 L195.536,185.56 L195.536,184.056 L195.968,184.056 C197.616,184.04 198.624,183.56 198.624,182.312 C198.624,181.304 197.968,180.632 196.72,180.632 C195.44,180.632 194.848,181.4 194.736,182.216 L192.96,182.216 Z M204.464,184.904 C203.472,184.408 202.8,183.576 202.8,182.28 C202.8,180.584 204.064,179.128 206.64,179.128 C209.216,179.128 210.48,180.6 210.48,182.28 C210.48,183.528 209.76,184.44 208.816,184.904 C210,185.352 210.784,186.392 210.784,187.784 C210.784,189.912 209.056,191.288 206.64,191.288 C204.24,191.288 202.512,189.912 202.512,187.784 C202.512,186.376 203.296,185.336 204.464,184.904 Z M206.64,184.328 C207.856,184.328 208.736,183.56 208.736,182.504 C208.736,181.304 207.92,180.648 206.64,180.648 C205.392,180.648 204.56,181.288 204.56,182.52 C204.56,183.576 205.424,184.328 206.64,184.328 Z M206.64,185.704 C205.296,185.704 204.256,186.36 204.256,187.72 C204.256,188.904 205.152,189.768 206.64,189.768 C208.112,189.768 208.992,188.888 208.992,187.72 C208.992,186.408 208.016,185.704 206.64,185.704 Z" id="12312319138" fill="#33334F" mask="url(#mask-2)"></path>
                            <g id="Group-9" mask="url(#mask-2)">
                                <g transform="translate(47.000000, 57.000000)">
                                    <path d="M36.76,18 L36.76,5.5 L34.9,5.5 L34.9,3.42 L39.06,3.42 L39.06,18 L36.76,18 Z M42.8,3.38 L51.6,3.38 L51.6,5.38 L44.9,5.38 L44.9,9.36 C45.44,8.64 46.62,8.04 47.92,8.04 C51.5,8.04 52.6,10.7 52.6,12.9 C52.6,15.8 50.94,18 47.56,18 C44.56,18 42.82,16.34 42.48,14.06 L44.7,14.06 C45,15.3 46.04,16.1 47.58,16.1 C49.54,16.1 50.42,14.76 50.42,12.96 C50.42,11.06 49.48,9.98 47.58,9.98 C46.24,9.98 45.34,10.72 44.96,11.8 L42.8,11.8 L42.8,3.38 Z" id="15" fill="#FF2617"></path>
                                    <g id="alert-triangle" stroke-width="1" fill="none">
                                        <rect id="Rectangle" fill="#000000" opacity="0" transform="translate(12.000000, 12.000000) rotate(90.000000) translate(-12.000000, -12.000000) " x="0" y="0" width="24" height="24"></rect>
                                        <path d="M22.56,16.3 L14.89,3.58 C14.2597186,2.59400001 13.1702353,1.99737652 12,1.99737652 C10.8297647,1.99737652 9.74028139,2.59400001 9.11,3.58 L1.44,16.3 C0.888546003,17.2192471 0.869485343,18.3628867 1.39,19.3 C1.99197363,20.3551378 3.11522982,21.0046397 4.33,21 L19.67,21 C20.8765042,21.0128744 21.9978314,20.3797441 22.61,19.34 C23.146086,18.3926382 23.1269508,17.2292197 22.56,16.3 Z M12,17 C11.4477153,17 11,16.5522847 11,16 C11,15.4477153 11.4477153,15 12,15 C12.5522847,15 13,15.4477153 13,16 C13,16.5522847 12.5522847,17 12,17 Z M13,13 C13,13.5522847 12.5522847,14 12,14 C11.4477153,14 11,13.5522847 11,13 L11,9 C11,8.44771525 11.4477153,8 12,8 C12.5522847,8 13,8.44771525 13,9 L13,13 Z" id="Shape" fill="#FF2617" fill-rule="nonzero"></path>
                                    </g>
                                </g>
                            </g>
                            <g id="Group-9-Copy" mask="url(#mask-2)">
                                <g transform="translate(142.000000, 56.000000)">
                                    <path d="M36.76,19 L36.76,6.5 L34.9,6.5 L34.9,4.42 L39.06,4.42 L39.06,19 L36.76,19 Z M42.8,4.38 L51.6,4.38 L51.6,6.38 L44.9,6.38 L44.9,10.36 C45.44,9.64 46.62,9.04 47.92,9.04 C51.5,9.04 52.6,11.7 52.6,13.9 C52.6,16.8 50.94,19 47.56,19 C44.56,19 42.82,17.34 42.48,15.06 L44.7,15.06 C45,16.3 46.04,17.1 47.58,17.1 C49.54,17.1 50.42,15.76 50.42,13.96 C50.42,12.06 49.48,10.98 47.58,10.98 C46.24,10.98 45.34,11.72 44.96,12.8 L42.8,12.8 L42.8,4.38 Z" id="15" fill="#B9B9B9"></path>
                                    <g id="settings-2" stroke-width="1" fill="none">
                                        <rect id="Rectangle" fill="#000000" opacity="0" transform="translate(12.000000, 12.000000) rotate(180.000000) translate(-12.000000, -12.000000) " x="-1.77635684e-15" y="1.77635684e-15" width="24" height="24"></rect>
                                        <circle id="Oval" fill="#B9B9B9" cx="12" cy="12" r="1.5"></circle>
                                        <path d="M20.32,9.37 L19.23,9.37 C19.09,9.37 18.99,9.26 18.93,9.11 C18.8570174,8.99746355 18.8570174,8.85253645 18.93,8.74 L19.74,8 C20.0607877,7.69143242 20.2414358,7.26510293 20.24,6.82 C20.2395608,6.37235219 20.0594219,5.94362145 19.74,5.63 L18.4,4.26 C18.0864844,3.94427896 17.6599402,3.76672214 17.215,3.76672214 C16.7700598,3.76672214 16.3435156,3.94427896 16.03,4.26 L15.26,5 C15.1350559,5.08005209 14.9749441,5.08005209 14.85,5 C14.7267387,4.95403487 14.6410545,4.84108755 14.63,4.71 L14.63,3.68 C14.6304025,2.77134221 13.9082554,2.0270433 13,2 L11.06,2 C10.1305301,1.99998373 9.37549982,2.75054638 9.37,3.68 L9.37,4.77 C9.37,4.91 9.26,5.01 9.11,5.07 C8.99746355,5.14298262 8.85253645,5.14298262 8.74,5.07 L8,4.26 C7.6832832,3.94516996 7.25653455,3.7658638 6.81,3.76 C6.36536414,3.76086745 5.93989746,3.94114994 5.63,4.26 L4.26,5.6 C3.93494191,5.91460789 3.75142154,6.3476275 3.75142154,6.8 C3.75142154,7.2523725 3.93494191,7.68539211 4.26,8 L5,8.74 C5.08005209,8.8649441 5.08005209,9.0250559 5,9.15 C4.95403487,9.27326133 4.84108755,9.3589455 4.71,9.37 L3.68,9.37 C2.75216162,9.37 2,10.1221616 2,11.05 L2,12.94 C1.99998373,13.8694699 2.75054638,14.6245002 3.68,14.63 L4.77,14.63 C4.91,14.63 5.01,14.74 5.07,14.89 C5.14298262,15.0025364 5.14298262,15.1474636 5.07,15.26 L4.26,16 C3.94516996,16.3167168 3.7658638,16.7434654 3.76,17.19 C3.75930826,17.6378756 3.93962393,18.0670269 4.26,18.38 L5.6,19.74 C5.91351556,20.055721 6.3400598,20.2332779 6.785,20.2332779 C7.2299402,20.2332779 7.65648444,20.055721 7.97,19.74 L8.74,19 C8.8649441,18.9199479 9.0250559,18.9199479 9.15,19 C9.27326133,19.0459651 9.3589455,19.1589124 9.37,19.29 L9.37,20.38 C9.40231779,21.2843261 10.1450968,22.0005773 11.05,22 L12.94,22 C13.8694699,22.0000163 14.6245002,21.2494536 14.63,20.32 L14.63,19.23 C14.63,19.09 14.74,18.99 14.89,18.93 C15.0025364,18.8570174 15.1474636,18.8570174 15.26,18.93 L16.02,19.7 C16.3367168,20.01483 16.7634654,20.1941362 17.21,20.2 C17.6546359,20.1991326 18.0801025,20.0188501 18.39,19.7 L19.73,18.36 C20.045721,18.0464844 20.2232779,17.6199402 20.2232779,17.175 C20.2232779,16.7300598 20.045721,16.3035156 19.73,15.99 L19,15.26 C18.9270174,15.1474636 18.9270174,15.0025364 19,14.89 C19.0459651,14.7667387 19.1589124,14.6810545 19.29,14.67 L20.38,14.67 C21.2804627,14.6378328 21.9952111,13.9010244 22,13 L22,11.06 C22.0000163,10.1305301 21.2494536,9.37549982 20.32,9.37 Z M12,15.5 C10.5843821,15.5 9.30815514,14.6472524 8.76642164,13.339392 C8.22468814,12.0315316 8.52413328,10.5261193 9.52512627,9.52512627 C10.5261193,8.52413328 12.0315316,8.22468814 13.339392,8.76642164 C14.6472524,9.30815514 15.5,10.5843821 15.5,12 C15.5,13.9329966 13.9329966,15.5 12,15.5 Z" id="Shape" fill="#B9B9B9" fill-rule="nonzero"></path>
                                    </g>
                                </g>
                            </g>
                            <g id="Group-9-Copy-2" mask="url(#mask-2)" fill="#32C954">
                                <g transform="translate(243.000000, 59.000000)">
                                    <path d="M34.76,16 L34.76,3.5 L32.9,3.5 L32.9,1.42 L37.06,1.42 L37.06,16 L34.76,16 Z M40.8,1.38 L49.6,1.38 L49.6,3.38 L42.9,3.38 L42.9,7.36 C43.44,6.64 44.62,6.04 45.92,6.04 C49.5,6.04 50.6,8.7 50.6,10.9 C50.6,13.8 48.94,16 45.56,16 C42.56,16 40.82,14.34 40.48,12.06 L42.7,12.06 C43,13.3 44.04,14.1 45.58,14.1 C47.54,14.1 48.42,12.76 48.42,10.96 C48.42,9.06 47.48,7.98 45.58,7.98 C44.24,7.98 43.34,8.72 42.96,9.8 L40.8,9.8 L40.8,1.38 Z" id="15" fill-rule="evenodd"></path>
                                    <path d="M10,4.4408921e-16 C4.4771525,-2.22044605e-16 4.4408921e-16,4.4771525 0,10 C-4.4408921e-16,15.5228475 4.4771525,20 10,20 C15.5228475,20 20,15.5228475 20,10 C20,7.3478351 18.9464316,4.80429597 17.0710678,2.92893219 C15.195704,1.0535684 12.6521649,2.22044605e-16 10,4.4408921e-16 Z M14.3,7.61 L9.73,13.61 C9.54120739,13.855247 9.24949665,13.9992561 8.94,14 C8.63221965,14.001658 8.34082212,13.861492 8.15,13.62 L5.71,10.51 C5.49028166,10.2277602 5.43782669,9.8497415 5.57239438,9.51833993 C5.70696206,9.18693836 6.00810836,8.95250169 6.36239438,8.90333993 C6.7166804,8.85417818 7.07028166,8.99776018 7.29,9.28 L8.92,11.36 L12.7,6.36 C12.917932,6.07418751 13.2717886,5.92635122 13.6282755,5.97217964 C13.9847624,6.01800806 14.2897207,6.25053875 14.4282755,6.58217966 C14.5668304,6.91382056 14.517932,7.29418753 14.3,7.58 L14.3,7.61 Z" id="Shape" fill-rule="nonzero"></path>
                                </g>
                            </g>
                            <path d="M110.552,242.128 L113.864,232.88 L115.784,232.88 L111.608,244 L109.496,244 L105.304,232.88 L107.256,232.88 L110.552,242.128 Z M117.304,244 L117.304,235.184 L119.128,235.184 L119.128,244 L117.304,244 Z M118.232,234.016 C117.576,234.016 117.064,233.504 117.064,232.848 C117.064,232.192 117.576,231.68 118.232,231.68 C118.872,231.68 119.384,232.192 119.384,232.848 C119.384,233.504 118.872,234.016 118.232,234.016 Z M125.24,236.576 C124.008,236.576 123.016,237.408 122.824,238.8 L127.704,238.8 C127.672,237.44 126.6,236.576 125.24,236.576 Z M129.368,241.376 C128.872,242.912 127.48,244.144 125.32,244.144 C122.792,244.144 120.92,242.352 120.92,239.584 C120.92,236.816 122.712,235.04 125.32,235.04 C127.832,235.04 129.608,236.784 129.608,239.376 C129.608,239.68 129.592,239.968 129.544,240.272 L122.808,240.272 C122.936,241.728 123.976,242.608 125.32,242.608 C126.44,242.608 127.064,242.064 127.4,241.376 L129.368,241.376 Z M133.112,244 L130.36,235.184 L132.216,235.184 L134.056,242.272 L135.928,235.184 L137.832,235.184 L139.624,242.24 L141.448,235.184 L143.24,235.184 L140.504,244 L138.584,244 L136.808,237.488 L135.032,244 L133.112,244 Z M148.152,239.552 C148.152,236.832 149.992,235.04 152.328,235.04 C153.48,235.04 154.696,235.584 155.368,236.416 L155.368,232.16 L157.208,232.16 L157.208,244 L155.368,244 L155.368,242.672 C154.808,243.472 153.752,244.144 152.312,244.144 C149.992,244.144 148.152,242.272 148.152,239.552 Z M155.368,239.584 C155.368,237.696 154.072,236.624 152.696,236.624 C151.336,236.624 150.024,237.648 150.024,239.552 C150.024,241.456 151.336,242.56 152.696,242.56 C154.072,242.56 155.368,241.488 155.368,239.584 Z M163.32,236.576 C162.088,236.576 161.096,237.408 160.904,238.8 L165.784,238.8 C165.752,237.44 164.68,236.576 163.32,236.576 Z M167.448,241.376 C166.952,242.912 165.56,244.144 163.4,244.144 C160.872,244.144 159,242.352 159,239.584 C159,236.816 160.792,235.04 163.4,235.04 C165.912,235.04 167.688,236.784 167.688,239.376 C167.688,239.68 167.672,239.968 167.624,240.272 L160.888,240.272 C161.016,241.728 162.056,242.608 163.4,242.608 C164.52,242.608 165.144,242.064 165.48,241.376 L167.448,241.376 Z M169.768,241.552 L169.768,236.672 L168.728,236.672 L168.728,235.184 L169.768,235.184 L169.768,232.992 L171.608,232.992 L171.608,235.184 L173.752,235.184 L173.752,236.672 L171.608,236.672 L171.608,241.552 C171.608,242.208 171.864,242.48 172.632,242.48 L173.752,242.48 L173.752,244 L172.312,244 C170.744,244 169.768,243.344 169.768,241.552 Z M174.824,239.552 C174.824,236.832 176.664,235.04 178.984,235.04 C180.472,235.04 181.496,235.744 182.04,236.464 L182.04,235.184 L183.88,235.184 L183.88,244 L182.04,244 L182.04,242.688 C181.48,243.44 180.424,244.144 178.952,244.144 C176.664,244.144 174.824,242.272 174.824,239.552 Z M182.04,239.584 C182.04,237.696 180.744,236.624 179.368,236.624 C178.008,236.624 176.696,237.648 176.696,239.552 C176.696,241.456 178.008,242.56 179.368,242.56 C180.744,242.56 182.04,241.488 182.04,239.584 Z M186.28,244 L186.28,235.184 L188.104,235.184 L188.104,244 L186.28,244 Z M187.208,234.016 C186.552,234.016 186.04,233.504 186.04,232.848 C186.04,232.192 186.552,231.68 187.208,231.68 C187.848,231.68 188.36,232.192 188.36,232.848 C188.36,233.504 187.848,234.016 187.208,234.016 Z M190.504,244 L190.504,232.16 L192.328,232.16 L192.328,244 L190.504,244 Z M201.304,241.536 C201.304,243.024 200.008,244.144 197.928,244.144 C195.816,244.144 194.328,242.896 194.248,241.296 L196.136,241.296 C196.2,242.016 196.888,242.608 197.896,242.608 C198.952,242.608 199.512,242.16 199.512,241.552 C199.512,239.824 194.392,240.816 194.392,237.584 C194.392,236.176 195.704,235.04 197.784,235.04 C199.784,235.04 201.096,236.112 201.192,237.872 L199.368,237.872 C199.304,237.104 198.712,236.576 197.72,236.576 C196.744,236.576 196.232,236.976 196.232,237.568 C196.232,239.344 201.208,238.352 201.304,241.536 Z" id="View-details" fill="#8786AD" mask="url(#mask-2)"></path>
                            <path d="M50.825,129.3 L53.15,129.3 C54.85,129.3 55.575,128.45 55.575,127.1 C55.575,125.75 54.85,124.9 53.15,124.9 L50.825,124.9 L50.825,129.3 Z M59.925,127.1 C59.925,130 57.95,132.7 53.475,132.7 L50.825,132.7 L50.825,139 L46.55,139 L46.55,121.45 L53.475,121.45 C57.775,121.45 59.925,123.875 59.925,127.1 Z M75.545,125.05 L75.545,139 L71.27,139 L71.27,137.1 C70.42,138.3 68.92,139.15 67.045,139.15 C63.82,139.15 61.645,136.925 61.645,133.2 L61.645,125.05 L65.895,125.05 L65.895,132.625 C65.895,134.525 66.97,135.575 68.57,135.575 C70.22,135.575 71.27,134.525 71.27,132.625 L71.27,125.05 L75.545,125.05 Z M82.515,127.025 C83.29,125.775 84.815,124.85 86.815,124.85 C90.265,124.85 92.965,127.6 92.965,132 C92.965,136.4 90.24,139.2 86.815,139.2 C84.765,139.2 83.29,138.275 82.515,137.05 L82.515,139 L78.24,139 L78.24,120.5 L82.515,120.5 L82.515,127.025 Z M88.615,132 C88.615,129.775 87.165,128.575 85.54,128.575 C83.94,128.575 82.49,129.8 82.49,132.025 C82.49,134.25 83.94,135.475 85.54,135.475 C87.165,135.475 88.615,134.225 88.615,132 Z M94.835,139 L94.835,120.5 L99.11,120.5 L99.11,139 L94.835,139 Z M101.83,139 L101.83,125.05 L106.105,125.05 L106.105,139 L101.83,139 Z M103.98,123.6 C102.455,123.6 101.43,122.575 101.43,121.3 C101.43,120 102.455,118.975 103.98,118.975 C105.48,118.975 106.505,120 106.505,121.3 C106.505,122.575 105.48,123.6 103.98,123.6 Z M107.975,132.025 C107.975,127.625 110.875,124.85 114.975,124.85 C118.475,124.85 120.95,126.775 121.675,130.1 L117.125,130.1 C116.775,129.125 116.075,128.5 114.9,128.5 C113.375,128.5 112.325,129.7 112.325,132.025 C112.325,134.35 113.375,135.55 114.9,135.55 C116.075,135.55 116.75,134.975 117.125,133.95 L121.675,133.95 C120.95,137.175 118.475,139.2 114.975,139.2 C110.875,139.2 107.975,136.45 107.975,132.025 Z M123.57,139 L123.57,125.05 L127.845,125.05 L127.845,139 L123.57,139 Z M125.72,123.6 C124.195,123.6 123.17,122.575 123.17,121.3 C123.17,120 124.195,118.975 125.72,118.975 C127.22,118.975 128.245,120 128.245,121.3 C128.245,122.575 127.22,123.6 125.72,123.6 Z M141.89,134.95 C141.89,137.375 139.74,139.2 136.24,139.2 C132.515,139.2 130.015,137.125 129.815,134.425 L134.04,134.425 C134.14,135.4 135.015,136.05 136.19,136.05 C137.29,136.05 137.865,135.55 137.865,134.925 C137.865,132.675 130.265,134.3 130.265,129.175 C130.265,126.8 132.29,124.85 135.94,124.85 C139.54,124.85 141.54,126.85 141.815,129.6 L137.865,129.6 C137.74,128.65 137.015,128.025 135.815,128.025 C134.815,128.025 134.265,128.425 134.265,129.1 C134.265,131.325 141.815,129.75 141.89,134.95 Z" id="Publicis" fill="#33334F" mask="url(#mask-2)"></path>
                            <circle id="Oval" fill="#E2EFFF" mask="url(#mask-2)" cx="68.5" cy="239.5" r="21.5"></circle>
                            <circle id="Oval" fill="#489DFF" mask="url(#mask-2)" cx="69" cy="240" r="1.5"></circle>
                            <path d="M78.87,239.5 C78.23,238.39 74.71,232.82 68.73,233 C63.2,233.14 60,238 59.13,239.5 C58.9513672,239.809401 58.9513672,240.190599 59.13,240.5 C59.76,241.59 63.13,247 69.02,247 L69.27,247 C74.8,246.86 78.01,242 78.87,240.5 C79.0486328,240.190599 79.0486328,239.809401 78.87,239.5 Z M69,243.5 C67.0670034,243.5 65.5,241.932997 65.5,240 C65.5,238.067003 67.0670034,236.5 69,236.5 C70.9329966,236.5 72.5,238.067003 72.5,240 C72.5,241.932997 70.9329966,243.5 69,243.5 Z" id="Shape" fill="#489DFF" fill-rule="nonzero" mask="url(#mask-2)"></path>
                        </g>
                    </g>
                    <g id="eye" transform="translate(57.000000, 228.000000)"></g>
                </g>
                <g id="eye" transform="translate(57.000000, 228.000000)">
                    <rect id="Rectangle" fill="#000000" opacity="0" x="0" y="0" width="24" height="24"></rect>
                    <circle id="Oval" fill="#489DFF" cx="12" cy="12" r="1.5"></circle>
                    <path d="M21.87,11.5 C21.23,10.39 17.71,4.82 11.73,5 C6.2,5.14 3,10 2.13,11.5 C1.95136721,11.8094011 1.95136721,12.1905989 2.13,12.5 C2.76,13.59 6.13,19 12.02,19 L12.27,19 C17.8,18.86 21.01,14 21.87,12.5 C22.0486328,12.1905989 22.0486328,11.8094011 21.87,11.5 Z M12,15.5 C10.0670034,15.5 8.5,13.9329966 8.5,12 C8.5,10.0670034 10.0670034,8.5 12,8.5 C13.9329966,8.5 15.5,10.0670034 15.5,12 C15.5,13.9329966 13.9329966,15.5 12,15.5 Z" id="Shape" fill="#489DFF" fill-rule="nonzero"></path>
                </g>
            </g>
        </g>
    </g>
</svg>