<?xml version="1.0" encoding="UTF-8"?>
<svg width="439px" height="329px" viewBox="0 0 439 329" version="1.1" xmlns="http://www.w3.org/2000/svg" xmlns:xlink="http://www.w3.org/1999/xlink">
    <!-- Generator: Sketch 52.6 (67491) - http://www.bohemiancoding.com/sketch -->
    <title>Group 10</title>
    <desc>Created with Sketch.</desc>
    <g id="Page-1" stroke="none" stroke-width="1" fill="none" fill-rule="evenodd">
        <g id="Distributions-in-Progress-Copy" transform="translate(-937.000000, -570.000000)">
            <g id="Group-10" transform="translate(937.000000, 570.000000)">
                <g id="Group-8">
                    <g id="Group-7">
                        <rect id="Rectangle" fill="#FFFFFF" x="0" y="0" width="438" height="329" rx="6"></rect>
                        <g id="Item" transform="translate(1.000000, 122.000000)">
                            <path d="M0.5,58.5 L437.5,58.5" id="Line" stroke="#E6E6E9" stroke-linecap="square"></path>
                            <g id="Group-6" transform="translate(224.000000, 0.000000)" fill="#33334F">
                                <g id="Group-5">
                                    <path d="M12.2175,30 L12.2175,19.35 L16.1025,19.35 C16.9425042,19.35 17.7099965,19.4774987 18.405,19.7325 C19.1000035,19.9875013 19.6949975,20.3474977 20.19,20.8125 C20.6850025,21.2775023 21.0674986,21.8349968 21.3375,22.485 C21.6075013,23.1350033 21.7425,23.859996 21.7425,24.66 C21.7425,25.460004 21.6075013,26.1874967 21.3375,26.8425 C21.0674986,27.4975033 20.6825025,28.0599976 20.1825,28.53 C19.6824975,29.0000024 19.0875034,29.3624987 18.3975,29.6175 C17.7074965,29.8725013 16.9425042,30 16.1025,30 L12.2175,30 Z M14.0475,28.365 L16.0125,28.365 C16.8025039,28.365 17.4824971,28.2150015 18.0525,27.915 C18.6225028,27.6149985 19.0649984,27.1875028 19.38,26.6325 C19.6950016,26.0774972 19.8525,25.4250038 19.8525,24.675 C19.8525,23.9249962 19.6950016,23.2725028 19.38,22.7175 C19.0649984,22.1624972 18.6200029,21.7350015 18.045,21.435 C17.4699971,21.1349985 16.7925039,20.985 16.0125,20.985 L14.0475,20.985 L14.0475,28.365 Z M23.4825,30 L23.4825,19.35 L29.9325,19.35 L29.9325,20.925 L25.2825,20.925 L25.2825,23.715 L29.4825,23.715 L29.4825,25.29 L25.2825,25.29 L25.2825,28.425 L30.0825,28.425 L30.0825,30 L23.4825,30 Z M32.0025,30 L32.0025,19.35 L38.3175,19.35 L38.3175,20.955 L33.8025,20.955 L33.8025,24.015 L37.8525,24.015 L37.8525,25.62 L33.8025,25.62 L33.8025,30 L32.0025,30 Z M38.3775,30 L42.6225,19.35 L44.5725,19.35 L48.8325,30 L46.9425,30 L45.9375,27.36 L41.1975,27.36 L40.1925,30 L38.3775,30 Z M41.7975,25.8 L45.3375,25.8 L43.5675,21.195 L41.7975,25.8 Z M54.0675,30.3 C53.3874966,30.3 52.7775027,30.195001 52.2375,29.985 C51.6974973,29.774999 51.2350019,29.470002 50.85,29.07 C50.4649981,28.669998 50.170001,28.1925028 49.965,27.6375 C49.759999,27.0824972 49.6575,26.4600035 49.6575,25.77 L49.6575,19.35 L51.4875,19.35 L51.4875,25.695 C51.4875,26.295003 51.5949989,26.8124978 51.81,27.2475 C52.0250011,27.6825022 52.327498,28.0199988 52.7175,28.26 C53.1075019,28.5000012 53.5674973,28.62 54.0975,28.62 C54.6275026,28.62 55.087498,28.5000012 55.4775,28.26 C55.8675019,28.0199988 56.1699989,27.6825022 56.385,27.2475 C56.6000011,26.8124978 56.7075,26.295003 56.7075,25.695 L56.7075,19.35 L58.5375,19.35 L58.5375,25.77 C58.5375,26.4600035 58.432501,27.0824972 58.2225,27.6375 C58.0124989,28.1925028 57.710002,28.667498 57.315,29.0625 C56.919998,29.457502 56.4500027,29.7624989 55.905,29.9775 C55.3599973,30.1925011 54.7475034,30.3 54.0675,30.3 Z M60.5175,30 L60.5175,19.35 L62.3475,19.35 L62.3475,28.365 L66.8625,28.365 L66.8625,30 L60.5175,30 Z M69.6225,30 L69.6225,20.985 L66.5175,20.985 L66.5175,19.35 L74.5575,19.35 L74.5575,20.985 L71.4525,20.985 L71.4525,30 L69.6225,30 Z M78.6975,30 L82.9425,19.35 L84.8925,19.35 L89.1525,30 L87.2625,30 L86.2575,27.36 L81.5175,27.36 L80.5125,30 L78.6975,30 Z M82.1175,25.8 L85.6575,25.8 L83.8875,21.195 L82.1175,25.8 Z M94.7925,30.3 C94.0424962,30.3 93.3500032,30.1625014 92.715,29.8875 C92.0799968,29.6124986 91.5300023,29.2250025 91.065,28.725 C90.5999977,28.2249975 90.2375013,27.6375034 89.9775,26.9625 C89.7174987,26.2874966 89.5875,25.550004 89.5875,24.75 C89.5875,24.1099968 89.6724991,23.5025029 89.8425,22.9275 C90.0125008,22.3524971 90.2549984,21.8275024 90.57,21.3525 C90.8850016,20.8774976 91.2574978,20.4675017 91.6875,20.1225 C92.1175021,19.7774983 92.5949974,19.5125009 93.12,19.3275 C93.6450026,19.1424991 94.202497,19.05 94.7925,19.05 C95.4825034,19.05 96.124997,19.1724988 96.72,19.4175 C97.315003,19.6625012 97.8299978,20.0074978 98.265,20.4525 C98.7000022,20.8975022 99.0274989,21.424997 99.2475,22.035 L97.4925,22.53 C97.2324987,21.9599971 96.8650024,21.5175016 96.39,21.2025 C95.9149976,20.8874984 95.377503,20.73 94.7775,20.73 C94.3074976,20.73 93.872502,20.829999 93.4725,21.03 C93.072498,21.230001 92.7225015,21.5099982 92.4225,21.87 C92.1224985,22.2300018 91.8900008,22.6549975 91.725,23.145 C91.5599992,23.6350025 91.4775,24.1649972 91.4775,24.735 C91.4775,25.3050029 91.5599992,25.8274976 91.725,26.3025 C91.8900008,26.7775024 92.1199985,27.1874983 92.415,27.5325 C92.7100015,27.8775017 93.059998,28.144999 93.465,28.335 C93.870002,28.5250009 94.3174975,28.62 94.8075,28.62 C95.4275031,28.62 95.9749976,28.4650015 96.45,28.155 C96.9250024,27.8449984 97.3074985,27.4000029 97.5975,26.82 L99.3525,27.315 C99.1224988,27.9250031 98.7875022,28.4549977 98.3475,28.905 C97.9074978,29.3550022 97.382503,29.6999988 96.7725,29.94 C96.1624969,30.1800012 95.5025035,30.3 94.7925,30.3 Z M105.7275,30.3 C104.977496,30.3 104.285003,30.1625014 103.65,29.8875 C103.014997,29.6124986 102.465002,29.2250025 102,28.725 C101.534998,28.2249975 101.172501,27.6375034 100.9125,26.9625 C100.652499,26.2874966 100.5225,25.550004 100.5225,24.75 C100.5225,24.1099968 100.607499,23.5025029 100.7775,22.9275 C100.947501,22.3524971 101.189998,21.8275024 101.505,21.3525 C101.820002,20.8774976 102.192498,20.4675017 102.6225,20.1225 C103.052502,19.7774983 103.529997,19.5125009 104.055,19.3275 C104.580003,19.1424991 105.137497,19.05 105.7275,19.05 C106.417503,19.05 107.059997,19.1724988 107.655,19.4175 C108.250003,19.6625012 108.764998,20.0074978 109.2,20.4525 C109.635002,20.8975022 109.962499,21.424997 110.1825,22.035 L108.4275,22.53 C108.167499,21.9599971 107.800002,21.5175016 107.325,21.2025 C106.849998,20.8874984 106.312503,20.73 105.7125,20.73 C105.242498,20.73 104.807502,20.829999 104.4075,21.03 C104.007498,21.230001 103.657501,21.5099982 103.3575,21.87 C103.057498,22.2300018 102.825001,22.6549975 102.66,23.145 C102.494999,23.6350025 102.4125,24.1649972 102.4125,24.735 C102.4125,25.3050029 102.494999,25.8274976 102.66,26.3025 C102.825001,26.7775024 103.054999,27.1874983 103.35,27.5325 C103.645001,27.8775017 103.994998,28.144999 104.4,28.335 C104.805002,28.5250009 105.252498,28.62 105.7425,28.62 C106.362503,28.62 106.909998,28.4650015 107.385,28.155 C107.860002,27.8449984 108.242499,27.4000029 108.5325,26.82 L110.2875,27.315 C110.057499,27.9250031 109.722502,28.4549977 109.2825,28.905 C108.842498,29.3550022 108.317503,29.6999988 107.7075,29.94 C107.097497,30.1800012 106.437504,30.3 105.7275,30.3 Z M116.8425,30.3 C116.222497,30.3 115.640003,30.2100009 115.095,30.03 C114.549997,29.8499991 114.055002,29.5925017 113.61,29.2575 C113.164998,28.9224983 112.782502,28.5250023 112.4625,28.065 C112.142498,27.6049977 111.895001,27.0900029 111.72,26.52 C111.544999,25.9499972 111.4575,25.3400032 111.4575,24.69 C111.4575,24.0399968 111.544999,23.4300029 111.72,22.86 C111.895001,22.2899972 112.142498,21.7725023 112.4625,21.3075 C112.782502,20.8424977 113.167498,20.4400017 113.6175,20.1 C114.067502,19.7599983 114.564997,19.5000009 115.11,19.32 C115.655003,19.1399991 116.237497,19.05 116.8575,19.05 C117.477503,19.05 118.059997,19.1399991 118.605,19.32 C119.150003,19.5000009 119.644998,19.7574983 120.09,20.0925 C120.535002,20.4275017 120.917498,20.8249977 121.2375,21.285 C121.557502,21.7450023 121.802499,22.2599972 121.9725,22.83 C122.142501,23.4000028 122.2275,24.0099967 122.2275,24.66 C122.2275,25.3100032 122.140001,25.9199972 121.965,26.49 C121.789999,27.0600029 121.542502,27.5774977 121.2225,28.0425 C120.902498,28.5075023 120.520002,28.9099983 120.075,29.25 C119.629998,29.5900017 119.135003,29.8499991 118.59,30.03 C118.044997,30.2100009 117.462503,30.3 116.8425,30.3 Z M116.8425,28.62 C117.352503,28.62 117.819998,28.522501 118.245,28.3275 C118.670002,28.132499 119.037498,27.8600017 119.3475,27.51 C119.657502,27.1599983 119.899999,26.7425024 120.075,26.2575 C120.250001,25.7724976 120.3375,25.2450028 120.3375,24.675 C120.3375,24.1049972 120.250001,23.5775024 120.075,23.0925 C119.899999,22.6074976 119.657502,22.1900018 119.3475,21.84 C119.037498,21.4899982 118.670002,21.217501 118.245,21.0225 C117.819998,20.827499 117.352503,20.73 116.8425,20.73 C116.332497,20.73 115.865002,20.827499 115.44,21.0225 C115.014998,21.217501 114.647502,21.4899982 114.3375,21.84 C114.027498,22.1900018 113.785001,22.6074976 113.61,23.0925 C113.434999,23.5775024 113.3475,24.1049972 113.3475,24.675 C113.3475,25.2450028 113.434999,25.7724976 113.61,26.2575 C113.785001,26.7425024 114.027498,27.1599983 114.3375,27.51 C114.647502,27.8600017 115.014998,28.132499 115.44,28.3275 C115.865002,28.522501 116.332497,28.62 116.8425,28.62 Z M128.2575,30.3 C127.577497,30.3 126.967503,30.195001 126.4275,29.985 C125.887497,29.774999 125.425002,29.470002 125.04,29.07 C124.654998,28.669998 124.360001,28.1925028 124.155,27.6375 C123.949999,27.0824972 123.8475,26.4600035 123.8475,25.77 L123.8475,19.35 L125.6775,19.35 L125.6775,25.695 C125.6775,26.295003 125.784999,26.8124978 126,27.2475 C126.215001,27.6825022 126.517498,28.0199988 126.9075,28.26 C127.297502,28.5000012 127.757497,28.62 128.2875,28.62 C128.817503,28.62 129.277498,28.5000012 129.6675,28.26 C130.057502,28.0199988 130.359999,27.6825022 130.575,27.2475 C130.790001,26.8124978 130.8975,26.295003 130.8975,25.695 L130.8975,19.35 L132.7275,19.35 L132.7275,25.77 C132.7275,26.4600035 132.622501,27.0824972 132.4125,27.6375 C132.202499,28.1925028 131.900002,28.667498 131.505,29.0625 C131.109998,29.457502 130.640003,29.7624989 130.095,29.9775 C129.549997,30.1925011 128.937503,30.3 128.2575,30.3 Z M134.7075,30 L134.7075,19.35 L136.3275,19.35 L141.6375,26.97 L141.6375,19.35 L143.4225,19.35 L143.4225,30 L141.8025,30 L136.4925,22.35 L136.4925,30 L134.7075,30 Z M148.2375,30 L148.2375,20.985 L145.1325,20.985 L145.1325,19.35 L153.1725,19.35 L153.1725,20.985 L150.0675,20.985 L150.0675,30 L148.2375,30 Z" id="DEFAULT-ACCOUNT"></path>
                                </g>
                            </g>
                        </g>
                        <g id="Item" transform="translate(1.000000, 192.000000)">
                            <path d="M0.5,64.5 L436.5,64.5" id="Line-Copy-2" stroke="#E6E6E9" stroke-linecap="square"></path>
                            <g id="Group-4-Copy" transform="translate(208.000000, 0.000000)">
                                <g id="Group-6">
                                    <g id="Group-5">
                                        <rect id="Rectangle" fill="#3D97FF" opacity="0.12" x="0" y="6" width="198" height="38" rx="3"></rect>
                                        <path d="M57.275,30 L61.52,19.35 L63.47,19.35 L67.73,30 L65.84,30 L64.835,27.36 L60.095,27.36 L59.09,30 L57.275,30 Z M60.695,25.8 L64.235,25.8 L62.465,21.195 L60.695,25.8 Z M72.965,30.3 C72.2849966,30.3 71.6750027,30.195001 71.135,29.985 C70.5949973,29.774999 70.1325019,29.470002 69.7475,29.07 C69.3624981,28.669998 69.067501,28.1925028 68.8625,27.6375 C68.657499,27.0824972 68.555,26.4600035 68.555,25.77 L68.555,19.35 L70.385,19.35 L70.385,25.695 C70.385,26.295003 70.4924989,26.8124978 70.7075,27.2475 C70.9225011,27.6825022 71.224998,28.0199988 71.615,28.26 C72.005002,28.5000012 72.4649974,28.62 72.995,28.62 C73.5250027,28.62 73.9849981,28.5000012 74.375,28.26 C74.7650019,28.0199988 75.0674989,27.6825022 75.2825,27.2475 C75.4975011,26.8124978 75.605,26.295003 75.605,25.695 L75.605,19.35 L77.435,19.35 L77.435,25.77 C77.435,26.4600035 77.330001,27.0824972 77.12,27.6375 C76.909999,28.1925028 76.607502,28.667498 76.2125,29.0625 C75.817498,29.457502 75.3475027,29.7624989 74.8025,29.9775 C74.2574973,30.1925011 73.6450034,30.3 72.965,30.3 Z M82.13,30 L82.13,20.985 L79.025,20.985 L79.025,19.35 L87.065,19.35 L87.065,20.985 L83.96,20.985 L83.96,30 L82.13,30 Z M88.775,30 L88.775,19.35 L90.605,19.35 L90.605,23.67 L95.81,23.67 L95.81,19.35 L97.64,19.35 L97.64,30 L95.81,30 L95.81,25.305 L90.605,25.305 L90.605,30 L88.775,30 Z M104.765,30.3 C104.144997,30.3 103.562503,30.2100009 103.0175,30.03 C102.472497,29.8499991 101.977502,29.5925017 101.5325,29.2575 C101.087498,28.9224983 100.705002,28.5250023 100.385,28.065 C100.064998,27.6049977 99.8175009,27.0900029 99.6425,26.52 C99.4674991,25.9499972 99.38,25.3400032 99.38,24.69 C99.38,24.0399968 99.4674991,23.4300029 99.6425,22.86 C99.8175009,22.2899972 100.064998,21.7725023 100.385,21.3075 C100.705002,20.8424977 101.089998,20.4400017 101.54,20.1 C101.990002,19.7599983 102.487497,19.5000009 103.0325,19.32 C103.577503,19.1399991 104.159997,19.05 104.78,19.05 C105.400003,19.05 105.982497,19.1399991 106.5275,19.32 C107.072503,19.5000009 107.567498,19.7574983 108.0125,20.0925 C108.457502,20.4275017 108.839998,20.8249977 109.16,21.285 C109.480002,21.7450023 109.724999,22.2599972 109.895,22.83 C110.065001,23.4000028 110.15,24.0099967 110.15,24.66 C110.15,25.3100032 110.062501,25.9199972 109.8875,26.49 C109.712499,27.0600029 109.465002,27.5774977 109.145,28.0425 C108.824998,28.5075023 108.442502,28.9099983 107.9975,29.25 C107.552498,29.5900017 107.057503,29.8499991 106.5125,30.03 C105.967497,30.2100009 105.385003,30.3 104.765,30.3 Z M104.765,28.62 C105.275003,28.62 105.742498,28.522501 106.1675,28.3275 C106.592502,28.132499 106.959998,27.8600017 107.27,27.51 C107.580002,27.1599983 107.822499,26.7425024 107.9975,26.2575 C108.172501,25.7724976 108.26,25.2450028 108.26,24.675 C108.26,24.1049972 108.172501,23.5775024 107.9975,23.0925 C107.822499,22.6074976 107.580002,22.1900018 107.27,21.84 C106.959998,21.4899982 106.592502,21.217501 106.1675,21.0225 C105.742498,20.827499 105.275003,20.73 104.765,20.73 C104.254997,20.73 103.787502,20.827499 103.3625,21.0225 C102.937498,21.217501 102.570002,21.4899982 102.26,21.84 C101.949998,22.1900018 101.707501,22.6074976 101.5325,23.0925 C101.357499,23.5775024 101.27,24.1049972 101.27,24.675 C101.27,25.2450028 101.357499,25.7724976 101.5325,26.2575 C101.707501,26.7425024 101.949998,27.1599983 102.26,27.51 C102.570002,27.8600017 102.937498,28.132499 103.3625,28.3275 C103.787502,28.522501 104.254997,28.62 104.765,28.62 Z M111.89,30 L111.89,19.35 L115.1,19.35 C115.950004,19.35 116.682497,19.4849987 117.2975,19.755 C117.912503,20.0250013 118.384998,20.4099975 118.715,20.91 C119.045002,21.4100025 119.21,22.0049965 119.21,22.695 C119.21,23.1250022 119.132501,23.5274981 118.9775,23.9025 C118.822499,24.2775019 118.602501,24.6149985 118.3175,24.915 C118.032499,25.2150015 117.690002,25.4599991 117.29,25.65 L119.765,30 L117.74,30 L115.685,26.13 C115.574999,26.1400001 115.452501,26.1475 115.3175,26.1525 C115.182499,26.1575 115.045001,26.16 114.905,26.16 C114.554998,26.16 114.150002,26.1250003 113.69,26.055 L113.69,30 L111.89,30 Z M113.69,20.94 L113.69,24.465 C113.900001,24.5050002 114.117499,24.5324999 114.3425,24.5475 C114.567501,24.5625001 114.789999,24.57 115.01,24.57 C115.750004,24.57 116.324998,24.4100016 116.735,24.09 C117.145002,23.7699984 117.35,23.3250028 117.35,22.755 C117.35,22.1849972 117.150002,21.7400016 116.75,21.42 C116.349998,21.0999984 115.790004,20.94 115.07,20.94 L113.69,20.94 Z M121.16,30 L121.16,19.35 L122.99,19.35 L122.99,30 L121.16,30 Z M124.655,30 L124.655,28.68 L130.31,20.91 L124.88,20.91 L124.88,19.35 L132.575,19.35 L132.575,20.67 L126.92,28.44 L132.905,28.44 L132.905,30 L124.655,30 Z M134.54,30 L134.54,19.35 L140.99,19.35 L140.99,20.925 L136.34,20.925 L136.34,23.715 L140.54,23.715 L140.54,25.29 L136.34,25.29 L136.34,28.425 L141.14,28.425 L141.14,30 L134.54,30 Z" id="AUTHORIZE" fill="#489DFF"></path>
                                    </g>
                                </g>
                            </g>
                        </g>
                        <g id="HEADER" transform="translate(1.000000, 29.000000)">
                            <path d="M0.5,83.5 L436.5,83.5" id="Line-Copy" stroke="#E6E6E9" stroke-linecap="square"></path>
                            <g id="Title" transform="translate(31.000000, 0.000000)">
                                <path d="M79.4277344,23 L77.6455078,18.0439453 L70.8217773,18.0439453 L69.0761719,23 L66,23 L72.6772461,5.08007812 L75.8510742,5.08007812 L82.5283203,23 L79.4277344,23 Z M76.8764648,15.5292969 L75.2041016,10.6708984 C75.0820306,10.345376 74.9131684,9.83268579 74.6975098,9.1328125 C74.4818511,8.43293921 74.3333337,7.92024902 74.2519531,7.59472656 C74.0322255,8.59570813 73.7107769,9.69026099 73.2875977,10.878418 L71.6762695,15.5292969 L76.8764648,15.5292969 Z M93.7505859,23 L93.3477539,21.2299805 L93.2012695,21.2299805 C92.8025045,21.8566112 92.2348832,22.3489565 91.4983887,22.7070312 C90.7618941,23.065106 89.9216519,23.2441406 88.9776367,23.2441406 C87.3418864,23.2441406 86.1211954,22.8372437 85.3155273,22.0234375 C84.5098593,21.2096313 84.1070313,19.9767335 84.1070313,18.324707 L84.1070313,9.49902344 L87.0000977,9.49902344 L87.0000977,17.8242188 C87.0000977,18.8577526 87.2116841,19.6328913 87.6348633,20.1496582 C88.0580425,20.6664251 88.7212845,20.9248047 89.6246094,20.9248047 C90.8290425,20.9248047 91.7140434,20.5647009 92.2796387,19.8444824 C92.8452339,19.124264 93.1280273,17.9178145 93.1280273,16.2250977 L93.1280273,9.49902344 L96.0088867,9.49902344 L96.0088867,23 L93.7505859,23 Z M104.777539,20.9248047 C105.477412,20.9248047 106.177275,20.8149425 106.877148,20.5952148 L106.877148,22.7558594 C106.559764,22.8942064 106.150833,23.0101721 105.650342,23.1037598 C105.149851,23.1973475 104.631057,23.2441406 104.093945,23.2441406 C101.375833,23.2441406 100.016797,21.8118633 100.016797,18.9472656 L100.016797,11.671875 L98.1735352,11.671875 L98.1735352,10.4023438 L100.151074,9.35253906 L101.127637,6.49609375 L102.897656,6.49609375 L102.897656,9.49902344 L106.742871,9.49902344 L106.742871,11.671875 L102.897656,11.671875 L102.897656,18.8984375 C102.897656,19.5901727 103.070587,20.1008284 103.416455,20.4304199 C103.762323,20.7600114 104.216013,20.9248047 104.777539,20.9248047 Z M121.102344,23 L118.221484,23 L118.221484,14.6992188 C118.221484,13.6575469 118.011932,12.8803737 117.592822,12.3676758 C117.173712,11.8549779 116.508436,11.5986328 115.596973,11.5986328 C114.39254,11.5986328 113.507539,11.9587366 112.941943,12.6789551 C112.376348,13.3991735 112.093555,14.605623 112.093555,16.2983398 L112.093555,23 L109.224902,23 L109.224902,4.00585938 L112.093555,4.00585938 L112.093555,8.82763672 C112.093555,9.60075256 112.044727,10.4267534 111.94707,11.3056641 L112.130176,11.3056641 C112.520803,10.6546191 113.06401,10.1500669 113.759814,9.79199219 C114.455619,9.43391748 115.267378,9.25488281 116.195117,9.25488281 C119.466618,9.25488281 121.102344,10.9028156 121.102344,14.1987305 L121.102344,23 Z M136.719141,16.2250977 C136.719141,18.4305123 136.153554,20.1516865 135.022363,21.3886719 C133.891173,22.6256572 132.316481,23.2441406 130.298242,23.2441406 C129.036843,23.2441406 127.921945,22.9593127 126.953516,22.3896484 C125.985086,21.8199841 125.240465,21.0021212 124.719629,19.9360352 C124.198793,18.8699491 123.938379,17.6329823 123.938379,16.2250977 C123.938379,14.0359591 124.499897,12.3269918 125.622949,11.0981445 C126.746002,9.86929724 128.328831,9.25488281 130.371484,9.25488281 C132.324619,9.25488281 133.870828,9.88353864 135.010156,11.1408691 C136.149485,12.3981996 136.719141,14.0929255 136.719141,16.2250977 Z M126.89248,16.2250977 C126.89248,19.3419752 128.043999,20.9003906 130.34707,20.9003906 C132.625728,20.9003906 133.765039,19.3419752 133.765039,16.2250977 C133.765039,13.1407723 132.61759,11.5986328 130.322656,11.5986328 C129.118223,11.5986328 128.245429,11.9973918 127.704248,12.7949219 C127.163067,13.5924519 126.89248,14.7358324 126.89248,16.2250977 Z M146.513184,9.25488281 C147.090986,9.25488281 147.567055,9.29557251 147.941406,9.37695312 L147.660645,12.050293 C147.253741,11.9526362 146.830569,11.9038086 146.391113,11.9038086 C145.243647,11.9038086 144.313887,12.2781538 143.601807,13.0268555 C142.889726,13.7755571 142.533691,14.7480409 142.533691,15.9443359 L142.533691,23 L139.665039,23 L139.665039,9.49902344 L141.911133,9.49902344 L142.289551,11.8793945 L142.436035,11.8793945 C142.883629,11.0737264 143.467526,10.4348982 144.187744,9.96289062 C144.907963,9.49088306 145.683101,9.25488281 146.513184,9.25488281 Z M152.9625,23 L150.093848,23 L150.093848,9.49902344 L152.9625,9.49902344 L152.9625,23 Z M149.922949,5.92236328 C149.922949,5.40966541 150.063329,5.01497534 150.344092,4.73828125 C150.624855,4.46158716 151.025648,4.32324219 151.546484,4.32324219 C152.051044,4.32324219 152.4437,4.46158716 152.724463,4.73828125 C153.005226,5.01497534 153.145605,5.40966541 153.145605,5.92236328 C153.145605,6.41064697 153.005226,6.79516461 152.724463,7.07592773 C152.4437,7.35669086 152.051044,7.49707031 151.546484,7.49707031 C151.025648,7.49707031 150.624855,7.35669086 150.344092,7.07592773 C150.063329,6.79516461 149.922949,6.41064697 149.922949,5.92236328 Z M165.735059,23 L155.493359,23 L155.493359,21.2299805 L162.31709,11.6962891 L155.908398,11.6962891 L155.908398,9.49902344 L165.539746,9.49902344 L165.539746,11.5009766 L158.8625,20.8027344 L165.735059,20.8027344 L165.735059,23 Z M176.762012,23 L176.188281,21.1201172 L176.090625,21.1201172 C175.43958,21.9420614 174.784476,22.5015447 174.125293,22.798584 C173.46611,23.0956232 172.619764,23.2441406 171.58623,23.2441406 C170.259726,23.2441406 169.224174,22.8860713 168.479541,22.1699219 C167.734908,21.4537725 167.362598,20.440599 167.362598,19.1303711 C167.362598,17.7387626 167.879357,16.6889684 168.912891,15.980957 C169.946424,15.2729457 171.521116,14.8863936 173.637012,14.8212891 L175.968555,14.7480469 L175.968555,14.027832 C175.968555,13.1651975 175.767141,12.5202658 175.364307,12.0930176 C174.961473,11.6657693 174.336886,11.4521484 173.490527,11.4521484 C172.798792,11.4521484 172.13555,11.5538727 171.500781,11.7573242 C170.866012,11.9607758 170.255667,12.200845 169.669727,12.4775391 L168.741992,10.4267578 C169.474418,10.0442689 170.276005,9.75333759 171.146777,9.55395508 C172.01755,9.35457257 172.839482,9.25488281 173.612598,9.25488281 C175.329729,9.25488281 176.625695,9.62922803 177.500537,10.3779297 C178.375379,11.1266313 178.812793,12.3025636 178.812793,13.9057617 L178.812793,23 L176.762012,23 Z M172.489551,21.046875 C173.531223,21.046875 174.367396,20.7559437 174.998096,20.1740723 C175.628795,19.5922009 175.944141,18.7763724 175.944141,17.7265625 L175.944141,16.5546875 L174.210742,16.6279297 C172.859824,16.6767581 171.877168,16.9025859 171.262744,17.3054199 C170.64832,17.708254 170.341113,18.3247029 170.341113,19.1547852 C170.341113,19.7570017 170.520148,20.2228987 170.878223,20.5524902 C171.236297,20.8820817 171.773401,21.046875 172.489551,21.046875 Z M187.495996,20.9248047 C188.195869,20.9248047 188.895732,20.8149425 189.595605,20.5952148 L189.595605,22.7558594 C189.278221,22.8942064 188.86929,23.0101721 188.368799,23.1037598 C187.868308,23.1973475 187.349514,23.2441406 186.812402,23.2441406 C184.09429,23.2441406 182.735254,21.8118633 182.735254,18.9472656 L182.735254,11.671875 L180.891992,11.671875 L180.891992,10.4023438 L182.869531,9.35253906 L183.846094,6.49609375 L185.616113,6.49609375 L185.616113,9.49902344 L189.461328,9.49902344 L189.461328,11.671875 L185.616113,11.671875 L185.616113,18.8984375 C185.616113,19.5901727 185.789044,20.1008284 186.134912,20.4304199 C186.48078,20.7600114 186.93447,20.9248047 187.495996,20.9248047 Z M194.812012,23 L191.943359,23 L191.943359,9.49902344 L194.812012,9.49902344 L194.812012,23 Z M191.772461,5.92236328 C191.772461,5.40966541 191.91284,5.01497534 192.193604,4.73828125 C192.474367,4.46158716 192.87516,4.32324219 193.395996,4.32324219 C193.900556,4.32324219 194.293211,4.46158716 194.573975,4.73828125 C194.854738,5.01497534 194.995117,5.40966541 194.995117,5.92236328 C194.995117,6.41064697 194.854738,6.79516461 194.573975,7.07592773 C194.293211,7.35669086 193.900556,7.49707031 193.395996,7.49707031 C192.87516,7.49707031 192.474367,7.35669086 192.193604,7.07592773 C191.91284,6.79516461 191.772461,6.41064697 191.772461,5.92236328 Z M210.538672,16.2250977 C210.538672,18.4305123 209.973085,20.1516865 208.841895,21.3886719 C207.710704,22.6256572 206.136013,23.2441406 204.117773,23.2441406 C202.856374,23.2441406 201.741476,22.9593127 200.773047,22.3896484 C199.804618,21.8199841 199.059996,21.0021212 198.53916,19.9360352 C198.018324,18.8699491 197.75791,17.6329823 197.75791,16.2250977 C197.75791,14.0359591 198.319428,12.3269918 199.44248,11.0981445 C200.565533,9.86929724 202.148362,9.25488281 204.191016,9.25488281 C206.14415,9.25488281 207.690359,9.88353864 208.829688,11.1408691 C209.969016,12.3981996 210.538672,14.0929255 210.538672,16.2250977 Z M200.712012,16.2250977 C200.712012,19.3419752 201.86353,20.9003906 204.166602,20.9003906 C206.445259,20.9003906 207.58457,19.3419752 207.58457,16.2250977 C207.58457,13.1407723 206.437121,11.5986328 204.142188,11.5986328 C202.937754,11.5986328 202.06496,11.9973918 201.523779,12.7949219 C200.982598,13.5924519 200.712012,14.7358324 200.712012,16.2250977 Z M225.362012,23 L222.481152,23 L222.481152,14.6992188 C222.481152,13.6575469 222.2716,12.8803737 221.85249,12.3676758 C221.43338,11.8549779 220.768104,11.5986328 219.856641,11.5986328 C218.644069,11.5986328 217.757034,11.9567021 217.195508,12.6728516 C216.633982,13.389001 216.353223,14.589347 216.353223,16.2739258 L216.353223,23 L213.48457,23 L213.48457,9.49902344 L215.730664,9.49902344 L216.133496,11.269043 L216.27998,11.269043 C216.686884,10.6261361 217.264677,10.1297218 218.013379,9.77978516 C218.762081,9.42984851 219.59215,9.25488281 220.503613,9.25488281 C223.742562,9.25488281 225.362012,10.9028156 225.362012,14.1987305 L225.362012,23 Z M238.073535,19.1547852 C238.073535,20.4731511 237.593397,21.4842901 236.633105,22.1882324 C235.672814,22.8921747 234.297502,23.2441406 232.507129,23.2441406 C230.708617,23.2441406 229.264133,22.9715197 228.173633,22.4262695 L228.173633,19.9482422 C229.760555,20.6806677 231.237591,21.046875 232.604785,21.046875 C234.370745,21.046875 235.253711,20.51384 235.253711,19.4477539 C235.253711,19.1059553 235.156056,18.8211274 234.960742,18.5932617 C234.765429,18.365396 234.44398,18.1293958 233.996387,17.8852539 C233.548793,17.6411121 232.926241,17.3644221 232.128711,17.0551758 C230.574341,16.4529592 229.522513,15.8507517 228.973193,15.2485352 C228.423874,14.6463186 228.149219,13.8650764 228.149219,12.9047852 C228.149219,11.7491804 228.615116,10.8519726 229.546924,10.2131348 C230.478732,9.57429694 231.746216,9.25488281 233.349414,9.25488281 C234.936336,9.25488281 236.437786,9.57633142 237.853809,10.2192383 L236.926074,12.3798828 C235.469361,11.7776663 234.244601,11.4765625 233.251758,11.4765625 C231.738078,11.4765625 230.98125,11.9078733 230.98125,12.7705078 C230.98125,13.193687 231.178595,13.5517563 231.573291,13.8447266 C231.967987,14.1376968 232.828574,14.5405248 234.155078,15.0532227 C235.269993,15.4845399 236.079718,15.87923 236.584277,16.2373047 C237.088837,16.5953794 237.463182,17.0083798 237.707324,17.4763184 C237.951466,17.9442569 238.073535,18.5037402 238.073535,19.1547852 Z" id="Authorizations" fill="#33334F"></path>
                                <path d="M74.0566406,51 L72.9873047,48.0263672 L68.8930664,48.0263672 L67.8457031,51 L66,51 L70.0063477,40.2480469 L71.9106445,40.2480469 L75.9169922,51 L74.0566406,51 Z M72.5258789,46.5175781 L71.5224609,43.6025391 C71.4492184,43.4072256 71.347901,43.0996115 71.2185059,42.6796875 C71.0891107,42.2597635 71.0000002,41.9521494 70.9511719,41.7568359 C70.8193353,42.3574249 70.6264661,43.0141566 70.3725586,43.7270508 L69.4057617,46.5175781 L72.5258789,46.5175781 Z M80.2040625,51.1464844 C78.9784704,51.1464844 78.0470833,50.7888219 77.409873,50.0734863 C76.7726628,49.3581507 76.4540625,48.3315497 76.4540625,46.9936523 C76.4540625,45.6313408 76.7873111,44.583988 77.4538184,43.8515625 C78.1203256,43.119137 79.0834507,42.7529297 80.3432227,42.7529297 C81.1977191,42.7529297 81.9667544,42.9116195 82.6503516,43.2290039 L82.130332,44.6132812 C81.4027893,44.3300767 80.8022094,44.1884766 80.3285742,44.1884766 C78.9272,44.1884766 78.2265234,45.118643 78.2265234,46.9790039 C78.2265234,47.8872116 78.4010822,48.5695778 78.7502051,49.026123 C79.0993279,49.4826683 79.6107974,49.7109375 80.2846289,49.7109375 C81.0512343,49.7109375 81.7763247,49.5205097 82.4599219,49.1396484 L82.4599219,50.6411133 C82.1523031,50.8217782 81.8239373,50.9511715 81.4748145,51.0292969 C81.1256916,51.1074223 80.7021119,51.1464844 80.2040625,51.1464844 Z M87.4208203,51.1464844 C86.1952282,51.1464844 85.2638411,50.7888219 84.6266309,50.0734863 C83.9894206,49.3581507 83.6708203,48.3315497 83.6708203,46.9936523 C83.6708203,45.6313408 84.0040689,44.583988 84.6705762,43.8515625 C85.3370834,43.119137 86.3002085,42.7529297 87.5599805,42.7529297 C88.4144769,42.7529297 89.1835122,42.9116195 89.8671094,43.2290039 L89.3470898,44.6132812 C88.6195471,44.3300767 88.0189672,44.1884766 87.545332,44.1884766 C86.1439578,44.1884766 85.4432812,45.118643 85.4432812,46.9790039 C85.4432812,47.8872116 85.6178401,48.5695778 85.9669629,49.026123 C86.3160857,49.4826683 86.8275552,49.7109375 87.5013867,49.7109375 C88.2679921,49.7109375 88.9930825,49.5205097 89.6766797,49.1396484 L89.6766797,50.6411133 C89.369061,50.8217782 89.0406951,50.9511715 88.6915723,51.0292969 C88.3424494,51.1074223 87.9188697,51.1464844 87.4208203,51.1464844 Z M98.5560352,46.9350586 C98.5560352,48.2583074 98.2166831,49.2910119 97.5379688,50.0332031 C96.8592544,50.7753943 95.9144396,51.1464844 94.7034961,51.1464844 C93.9466564,51.1464844 93.2777177,50.9755876 92.6966602,50.6337891 C92.1156026,50.2919905 91.6688297,49.8012727 91.3563281,49.1616211 C91.0438266,48.5219695 90.8875781,47.7797894 90.8875781,46.9350586 C90.8875781,45.6215755 91.2244888,44.5961951 91.8983203,43.8588867 C92.5721518,43.1215783 93.5218493,42.7529297 94.7474414,42.7529297 C95.9193223,42.7529297 96.8470474,43.1301232 97.5306445,43.8845215 C98.2142417,44.6389198 98.5560352,45.6557553 98.5560352,46.9350586 Z M92.6600391,46.9350586 C92.6600391,48.8051851 93.3509501,49.7402344 94.732793,49.7402344 C96.0999873,49.7402344 96.7835742,48.8051851 96.7835742,46.9350586 C96.7835742,45.0844634 96.0951045,44.1591797 94.7181445,44.1591797 C93.9954847,44.1591797 93.4718083,44.3984351 93.1470996,44.8769531 C92.822391,45.3554711 92.6600391,46.0414994 92.6600391,46.9350586 Z M106.036465,51 L105.794766,49.9379883 L105.706875,49.9379883 C105.467616,50.3139667 105.127043,50.6093739 104.685146,50.8242188 C104.24325,51.0390636 103.739104,51.1464844 103.172695,51.1464844 C102.191245,51.1464844 101.458831,50.9023462 100.97543,50.4140625 C100.492029,49.9257788 100.250332,49.1860401 100.250332,48.1948242 L100.250332,42.8994141 L101.986172,42.8994141 L101.986172,47.8945312 C101.986172,48.5146515 102.113124,48.9797348 102.367031,49.2897949 C102.620939,49.5998551 103.018884,49.7548828 103.560879,49.7548828 C104.283539,49.7548828 104.814539,49.5388205 105.153896,49.1066895 C105.493254,48.6745584 105.66293,47.9506887 105.66293,46.9350586 L105.66293,42.8994141 L107.391445,42.8994141 L107.391445,51 L106.036465,51 Z M116.761523,51 L115.033008,51 L115.033008,46.0195312 C115.033008,45.3945281 114.907277,44.9282242 114.655811,44.6206055 C114.404344,44.3129867 114.005179,44.1591797 113.458301,44.1591797 C112.730758,44.1591797 112.198537,44.3740213 111.861621,44.8037109 C111.524705,45.2334006 111.35625,45.9536082 111.35625,46.9643555 L111.35625,51 L109.635059,51 L109.635059,42.8994141 L110.982715,42.8994141 L111.224414,43.9614258 L111.312305,43.9614258 C111.556447,43.5756817 111.903123,43.2778331 112.352344,43.0678711 C112.801565,42.8579091 113.299607,42.7529297 113.846484,42.7529297 C115.789853,42.7529297 116.761523,43.7416893 116.761523,45.7192383 L116.761523,51 Z M121.964121,49.7548828 C122.384045,49.7548828 122.803963,49.6889655 123.223887,49.5571289 L123.223887,50.8535156 C123.033456,50.9365239 122.788097,51.0061032 122.487803,51.0622559 C122.187508,51.1184085 121.876232,51.1464844 121.553965,51.1464844 C119.923097,51.1464844 119.107676,50.287118 119.107676,48.5683594 L119.107676,44.203125 L118.001719,44.203125 L118.001719,43.4414062 L119.188242,42.8115234 L119.77418,41.0976562 L120.836191,41.0976562 L120.836191,42.8994141 L123.14332,42.8994141 L123.14332,44.203125 L120.836191,44.203125 L120.836191,48.5390625 C120.836191,48.9541036 120.93995,49.2604971 121.147471,49.458252 C121.354991,49.6560068 121.627205,49.7548828 121.964121,49.7548828 Z M133.387383,51 L133.043145,49.8720703 L132.984551,49.8720703 C132.593924,50.3652368 132.200861,50.7009268 131.805352,50.8791504 C131.409842,51.0573739 130.902034,51.1464844 130.281914,51.1464844 C129.486012,51.1464844 128.86468,50.9316428 128.4179,50.5019531 C127.971121,50.0722635 127.747734,49.4643594 127.747734,48.6782227 C127.747734,47.8432575 128.05779,47.213381 128.67791,46.7885742 C129.29803,46.3637674 130.242845,46.1318361 131.512383,46.0927734 L132.911309,46.0488281 L132.911309,45.6166992 C132.911309,45.0991185 132.79046,44.7121595 132.54876,44.4558105 C132.307059,44.1994616 131.932307,44.0712891 131.424492,44.0712891 C131.009451,44.0712891 130.611506,44.1323236 130.230645,44.2543945 C129.849783,44.3764655 129.483576,44.520507 129.132012,44.6865234 L128.575371,43.4560547 C129.014826,43.2265614 129.495779,43.0520026 130.018242,42.932373 C130.540706,42.8127435 131.033865,42.7529297 131.497734,42.7529297 C132.528013,42.7529297 133.305593,42.9775368 133.830498,43.4267578 C134.355403,43.8759788 134.617852,44.5815382 134.617852,45.543457 L134.617852,51 L133.387383,51 Z M130.823906,49.828125 C131.448909,49.828125 131.950613,49.6535662 132.329033,49.3044434 C132.707453,48.9553205 132.89666,48.4658235 132.89666,47.8359375 L132.89666,47.1328125 L131.856621,47.1767578 C131.04607,47.2060548 130.456476,47.3415515 130.087822,47.583252 C129.719168,47.8249524 129.534844,48.1948217 129.534844,48.6928711 C129.534844,49.054201 129.642265,49.3337392 129.857109,49.5314941 C130.071954,49.729249 130.394217,49.828125 130.823906,49.828125 Z M140.076797,51.1464844 C138.851205,51.1464844 137.919818,50.7888219 137.282607,50.0734863 C136.645397,49.3581507 136.326797,48.3315497 136.326797,46.9936523 C136.326797,45.6313408 136.660045,44.583988 137.326553,43.8515625 C137.99306,43.119137 138.956185,42.7529297 140.215957,42.7529297 C141.070453,42.7529297 141.839489,42.9116195 142.523086,43.2290039 L142.003066,44.6132812 C141.275524,44.3300767 140.674944,44.1884766 140.201309,44.1884766 C138.799934,44.1884766 138.099258,45.118643 138.099258,46.9790039 C138.099258,47.8872116 138.273817,48.5695778 138.622939,49.026123 C138.972062,49.4826683 139.483532,49.7109375 140.157363,49.7109375 C140.923969,49.7109375 141.649059,49.5205097 142.332656,49.1396484 L142.332656,50.6411133 C142.025038,50.8217782 141.696672,50.9511715 141.347549,51.0292969 C140.998426,51.1074223 140.574846,51.1464844 140.076797,51.1464844 Z M147.293555,51.1464844 C146.067963,51.1464844 145.136575,50.7888219 144.499365,50.0734863 C143.862155,49.3581507 143.543555,48.3315497 143.543555,46.9936523 C143.543555,45.6313408 143.876803,44.583988 144.543311,43.8515625 C145.209818,43.119137 146.172943,42.7529297 147.432715,42.7529297 C148.287211,42.7529297 149.056247,42.9116195 149.739844,43.2290039 L149.219824,44.6132812 C148.492282,44.3300767 147.891702,44.1884766 147.418066,44.1884766 C146.016692,44.1884766 145.316016,45.118643 145.316016,46.9790039 C145.316016,47.8872116 145.490574,48.5695778 145.839697,49.026123 C146.18882,49.4826683 146.70029,49.7109375 147.374121,49.7109375 C148.140726,49.7109375 148.865817,49.5205097 149.549414,49.1396484 L149.549414,50.6411133 C149.241795,50.8217782 148.913429,50.9511715 148.564307,51.0292969 C148.215184,51.1074223 147.791604,51.1464844 147.293555,51.1464844 Z M154.781309,51.1464844 C153.521537,51.1464844 152.536439,50.7790564 151.825986,50.0441895 C151.115534,49.3093225 150.760312,48.2973697 150.760312,47.0083008 C150.760312,45.685052 151.089899,44.6450233 151.749082,43.8881836 C152.408265,43.1313439 153.314018,42.7529297 154.466367,42.7529297 C155.535708,42.7529297 156.380427,43.0776335 157.000547,43.7270508 C157.620667,44.3764681 157.930723,45.2700138 157.930723,46.4077148 L157.930723,47.3378906 L152.532773,47.3378906 C152.557188,48.1240274 152.769588,48.7282694 153.16998,49.1506348 C153.570373,49.5730002 154.134332,49.7841797 154.861875,49.7841797 C155.340393,49.7841797 155.785945,49.7390141 156.198545,49.6486816 C156.611145,49.5583492 157.054255,49.4082042 157.527891,49.1982422 L157.527891,50.597168 C157.107967,50.7973643 156.683166,50.9389644 156.253477,51.0219727 C155.823787,51.1049809 155.333069,51.1464844 154.781309,51.1464844 Z M154.466367,44.0566406 C153.919489,44.0566406 153.481261,44.2299787 153.15167,44.5766602 C152.822078,44.9233416 152.625547,45.4287076 152.56207,46.0927734 L156.238828,46.0927734 C156.229062,45.4238248 156.067931,44.917238 155.75543,44.572998 C155.442928,44.228758 155.013245,44.0566406 154.466367,44.0566406 Z M165.118184,48.6928711 C165.118184,49.4838907 164.830101,50.0905741 164.253926,50.5129395 C163.677751,50.9353048 162.852564,51.1464844 161.77834,51.1464844 C160.699233,51.1464844 159.832542,50.9829118 159.178242,50.6557617 L159.178242,49.1689453 C160.130395,49.6084006 161.016617,49.828125 161.836934,49.828125 C162.896509,49.828125 163.426289,49.508304 163.426289,48.8686523 C163.426289,48.6635732 163.367696,48.4926765 163.250508,48.355957 C163.13332,48.2192376 162.940451,48.0776375 162.671895,47.9311523 C162.403339,47.7846672 162.029807,47.6186533 161.551289,47.4331055 C160.618667,47.0717755 159.98757,46.710451 159.657979,46.3491211 C159.328387,45.9877912 159.163594,45.5190458 159.163594,44.9428711 C159.163594,44.2495083 159.443132,43.7111836 160.002217,43.3278809 C160.561302,42.9445782 161.321792,42.7529297 162.283711,42.7529297 C163.235864,42.7529297 164.136734,42.9457989 164.986348,43.331543 L164.429707,44.6279297 C163.555679,44.2665998 162.820823,44.0859375 162.225117,44.0859375 C161.31691,44.0859375 160.862812,44.344724 160.862812,44.8623047 C160.862812,45.1162122 160.98122,45.3310538 161.218037,45.5068359 C161.454855,45.6826181 161.971207,45.9243149 162.767109,46.2319336 C163.436058,46.490724 163.921893,46.727538 164.224629,46.9423828 C164.527365,47.1572276 164.751972,47.4050279 164.898457,47.685791 C165.044942,47.9665541 165.118184,48.3022441 165.118184,48.6928711 Z M172.21043,48.6928711 C172.21043,49.4838907 171.922347,50.0905741 171.346172,50.5129395 C170.769997,50.9353048 169.94481,51.1464844 168.870586,51.1464844 C167.791479,51.1464844 166.924788,50.9829118 166.270488,50.6557617 L166.270488,49.1689453 C167.222641,49.6084006 168.108863,49.828125 168.92918,49.828125 C169.988755,49.828125 170.518535,49.508304 170.518535,48.8686523 C170.518535,48.6635732 170.459942,48.4926765 170.342754,48.355957 C170.225566,48.2192376 170.032697,48.0776375 169.764141,47.9311523 C169.495585,47.7846672 169.122053,47.6186533 168.643535,47.4331055 C167.710913,47.0717755 167.079816,46.710451 166.750225,46.3491211 C166.420633,45.9877912 166.25584,45.5190458 166.25584,44.9428711 C166.25584,44.2495083 166.535378,43.7111836 167.094463,43.3278809 C167.653548,42.9445782 168.414038,42.7529297 169.375957,42.7529297 C170.32811,42.7529297 171.22898,42.9457989 172.078594,43.331543 L171.521953,44.6279297 C170.647925,44.2665998 169.913069,44.0859375 169.317363,44.0859375 C168.409156,44.0859375 167.955059,44.344724 167.955059,44.8623047 C167.955059,45.1162122 168.073466,45.3310538 168.310283,45.5068359 C168.547101,45.6826181 169.063453,45.9243149 169.859355,46.2319336 C170.528304,46.490724 171.014139,46.727538 171.316875,46.9423828 C171.619611,47.1572276 171.844218,47.4050279 171.990703,47.685791 C172.137188,47.9665541 172.21043,48.3022441 172.21043,48.6928711 Z M182.615625,51 L182.271387,49.8720703 L182.212793,49.8720703 C181.822166,50.3652368 181.429104,50.7009268 181.033594,50.8791504 C180.638084,51.0573739 180.130277,51.1464844 179.510156,51.1464844 C178.714254,51.1464844 178.092922,50.9316428 177.646143,50.5019531 C177.199363,50.0722635 176.975977,49.4643594 176.975977,48.6782227 C176.975977,47.8432575 177.286032,47.213381 177.906152,46.7885742 C178.526273,46.3637674 179.471087,46.1318361 180.740625,46.0927734 L182.139551,46.0488281 L182.139551,45.6166992 C182.139551,45.0991185 182.018702,44.7121595 181.777002,44.4558105 C181.535302,44.1994616 181.160549,44.0712891 180.652734,44.0712891 C180.237693,44.0712891 179.839748,44.1323236 179.458887,44.2543945 C179.078025,44.3764655 178.711818,44.520507 178.360254,44.6865234 L177.803613,43.4560547 C178.243069,43.2265614 178.724021,43.0520026 179.246484,42.932373 C179.768948,42.8127435 180.262107,42.7529297 180.725977,42.7529297 C181.756255,42.7529297 182.533835,42.9775368 183.05874,43.4267578 C183.583645,43.8759788 183.846094,44.5815382 183.846094,45.543457 L183.846094,51 L182.615625,51 Z M180.052148,49.828125 C180.677152,49.828125 181.178856,49.6535662 181.557275,49.3044434 C181.935695,48.9553205 182.124902,48.4658235 182.124902,47.8359375 L182.124902,47.1328125 L181.084863,47.1767578 C180.274312,47.2060548 179.684719,47.3415515 179.316064,47.583252 C178.94741,47.8249524 178.763086,48.1948217 178.763086,48.6928711 C178.763086,49.054201 178.870507,49.3337392 179.085352,49.5314941 C179.300196,49.729249 179.622459,49.828125 180.052148,49.828125 Z M191.751328,51 L191.509629,49.9379883 L191.421738,49.9379883 C191.182479,50.3139667 190.841907,50.6093739 190.40001,50.8242188 C189.958113,51.0390636 189.453968,51.1464844 188.887559,51.1464844 C187.906108,51.1464844 187.173694,50.9023462 186.690293,50.4140625 C186.206892,49.9257788 185.965195,49.1860401 185.965195,48.1948242 L185.965195,42.8994141 L187.701035,42.8994141 L187.701035,47.8945312 C187.701035,48.5146515 187.827987,48.9797348 188.081895,49.2897949 C188.335802,49.5998551 188.733747,49.7548828 189.275742,49.7548828 C189.998402,49.7548828 190.529403,49.5388205 190.86876,49.1066895 C191.208117,48.6745584 191.377793,47.9506887 191.377793,46.9350586 L191.377793,42.8994141 L193.106309,42.8994141 L193.106309,51 L191.751328,51 Z M198.3675,49.7548828 C198.787424,49.7548828 199.207342,49.6889655 199.627266,49.5571289 L199.627266,50.8535156 C199.436835,50.9365239 199.191476,51.0061032 198.891182,51.0622559 C198.590887,51.1184085 198.279611,51.1464844 197.957344,51.1464844 C196.326476,51.1464844 195.511055,50.287118 195.511055,48.5683594 L195.511055,44.203125 L194.405098,44.203125 L194.405098,43.4414062 L195.591621,42.8115234 L196.177559,41.0976562 L197.23957,41.0976562 L197.23957,42.8994141 L199.546699,42.8994141 L199.546699,44.203125 L197.23957,44.203125 L197.23957,48.5390625 C197.23957,48.9541036 197.343329,49.2604971 197.55085,49.458252 C197.75837,49.6560068 198.030584,49.7548828 198.3675,49.7548828 Z M208.162383,51 L206.433867,51 L206.433867,46.0195312 C206.433867,45.3945281 206.308136,44.9282242 206.05667,44.6206055 C205.805204,44.3129867 205.406038,44.1591797 204.85916,44.1591797 C204.1365,44.1591797 203.6055,44.375242 203.266143,44.807373 C202.926785,45.2395041 202.757109,45.9633738 202.757109,46.9790039 L202.757109,51 L201.035918,51 L201.035918,39.6035156 L202.757109,39.6035156 L202.757109,42.496582 C202.757109,42.9604515 202.727813,43.4560521 202.669219,43.9833984 L202.779082,43.9833984 C203.013458,43.5927715 203.339383,43.2900401 203.756865,43.0751953 C204.174348,42.8603505 204.661403,42.7529297 205.218047,42.7529297 C207.180947,42.7529297 208.162383,43.7416893 208.162383,45.7192383 L208.162383,51 Z M217.532461,46.9350586 C217.532461,48.2583074 217.193109,49.2910119 216.514395,50.0332031 C215.83568,50.7753943 214.890865,51.1464844 213.679922,51.1464844 C212.923082,51.1464844 212.254144,50.9755876 211.673086,50.6337891 C211.092028,50.2919905 210.645255,49.8012727 210.332754,49.1616211 C210.020252,48.5219695 209.864004,47.7797894 209.864004,46.9350586 C209.864004,45.6215755 210.200915,44.5961951 210.874746,43.8588867 C211.548578,43.1215783 212.498275,42.7529297 213.723867,42.7529297 C214.895748,42.7529297 215.823473,43.1301232 216.50707,43.8845215 C217.190667,44.6389198 217.532461,45.6557553 217.532461,46.9350586 Z M211.636465,46.9350586 C211.636465,48.8051851 212.327376,49.7402344 213.709219,49.7402344 C215.076413,49.7402344 215.76,48.8051851 215.76,46.9350586 C215.76,45.0844634 215.07153,44.1591797 213.69457,44.1591797 C212.97191,44.1591797 212.448234,44.3984351 212.123525,44.8769531 C211.798817,45.3554711 211.636465,46.0414994 211.636465,46.9350586 Z M223.408887,42.7529297 C223.755568,42.7529297 224.04121,42.7773435 224.26582,42.8261719 L224.097363,44.4301758 C223.853221,44.3715817 223.599318,44.3422852 223.335645,44.3422852 C222.647165,44.3422852 222.089309,44.5668923 221.662061,45.0161133 C221.234812,45.4653343 221.021191,46.0488245 221.021191,46.7666016 L221.021191,51 L219.3,51 L219.3,42.8994141 L220.647656,42.8994141 L220.874707,44.3276367 L220.962598,44.3276367 C221.231154,43.8442359 221.581492,43.4609389 222.013623,43.1777344 C222.445754,42.8945298 222.910837,42.7529297 223.408887,42.7529297 Z M227.278477,51 L225.557285,51 L225.557285,42.8994141 L227.278477,42.8994141 L227.278477,51 Z M225.454746,40.753418 C225.454746,40.4457992 225.538974,40.2089852 225.707432,40.0429688 C225.87589,39.8769523 226.116366,39.7939453 226.428867,39.7939453 C226.731603,39.7939453 226.967196,39.8769523 227.135654,40.0429688 C227.304112,40.2089852 227.38834,40.4457992 227.38834,40.753418 C227.38834,41.0463882 227.304112,41.2770988 227.135654,41.4455566 C226.967196,41.6140145 226.731603,41.6982422 226.428867,41.6982422 C226.116366,41.6982422 225.87589,41.6140145 225.707432,41.4455566 C225.538974,41.2770988 225.454746,41.0463882 225.454746,40.753418 Z M234.942012,51 L228.796992,51 L228.796992,49.9379883 L232.89123,44.2177734 L229.046016,44.2177734 L229.046016,42.8994141 L234.824824,42.8994141 L234.824824,44.1005859 L230.818477,49.6816406 L234.942012,49.6816406 L234.942012,51 Z M240.027422,51.1464844 C238.76765,51.1464844 237.782552,50.7790564 237.0721,50.0441895 C236.361647,49.3093225 236.006426,48.2973697 236.006426,47.0083008 C236.006426,45.685052 236.336012,44.6450233 236.995195,43.8881836 C237.654378,43.1313439 238.560131,42.7529297 239.71248,42.7529297 C240.781822,42.7529297 241.62654,43.0776335 242.24666,43.7270508 C242.86678,44.3764681 243.176836,45.2700138 243.176836,46.4077148 L243.176836,47.3378906 L237.778887,47.3378906 C237.803301,48.1240274 238.015701,48.7282694 238.416094,49.1506348 C238.816486,49.5730002 239.380446,49.7841797 240.107988,49.7841797 C240.586506,49.7841797 241.032058,49.7390141 241.444658,49.6486816 C241.857258,49.5583492 242.300369,49.4082042 242.774004,49.1982422 L242.774004,50.597168 C242.35408,50.7973643 241.929279,50.9389644 241.49959,51.0219727 C241.0699,51.1049809 240.579182,51.1464844 240.027422,51.1464844 Z M239.71248,44.0566406 C239.165603,44.0566406 238.727375,44.2299787 238.397783,44.5766602 C238.068192,44.9233416 237.87166,45.4287076 237.808184,46.0927734 L241.484941,46.0927734 C241.475176,45.4238248 241.314045,44.917238 241.001543,44.572998 C240.689041,44.228758 240.259358,44.0566406 239.71248,44.0566406 Z M247.654336,51.1464844 C246.643589,51.1464844 245.855022,50.7802771 245.288613,50.0478516 C244.722204,49.315426 244.439004,48.2876043 244.439004,46.9643555 C244.439004,45.6362238 244.725866,44.6022986 245.2996,43.8625488 C245.873333,43.122799 246.668003,42.7529297 247.683633,42.7529297 C248.748091,42.7529297 249.55863,43.1459922 250.115273,43.9321289 L250.203164,43.9321289 C250.120156,43.3510713 250.078652,42.8920915 250.078652,42.5551758 L250.078652,39.6035156 L251.807168,39.6035156 L251.807168,51 L250.459512,51 L250.159219,49.9379883 L250.078652,49.9379883 C249.526892,50.7436564 248.718794,51.1464844 247.654336,51.1464844 Z M248.115762,49.7548828 C248.823773,49.7548828 249.338905,49.5559102 249.661172,49.157959 C249.983439,48.7600078 250.149453,48.1142623 250.159219,47.2207031 L250.159219,46.9790039 C250.159219,45.958491 249.993205,45.2334006 249.661172,44.8037109 C249.329139,44.3740213 248.809125,44.1591797 248.101113,44.1591797 C247.495642,44.1591797 247.029338,44.4045386 246.702187,44.8952637 C246.375037,45.3859888 246.211465,46.0854447 246.211465,46.9936523 C246.211465,47.8920943 246.370155,48.5769019 246.687539,49.0480957 C247.004923,49.5192895 247.480993,49.7548828 248.115762,49.7548828 Z M262.812949,51 L262.468711,49.8720703 L262.410117,49.8720703 C262.01949,50.3652368 261.626428,50.7009268 261.230918,50.8791504 C260.835408,51.0573739 260.327601,51.1464844 259.70748,51.1464844 C258.911578,51.1464844 258.290246,50.9316428 257.843467,50.5019531 C257.396687,50.0722635 257.173301,49.4643594 257.173301,48.6782227 C257.173301,47.8432575 257.483356,47.213381 258.103477,46.7885742 C258.723597,46.3637674 259.668412,46.1318361 260.937949,46.0927734 L262.336875,46.0488281 L262.336875,45.6166992 C262.336875,45.0991185 262.216027,44.7121595 261.974326,44.4558105 C261.732626,44.1994616 261.357874,44.0712891 260.850059,44.0712891 C260.435017,44.0712891 260.037072,44.1323236 259.656211,44.2543945 C259.27535,44.3764655 258.909142,44.520507 258.557578,44.6865234 L258.000937,43.4560547 C258.440393,43.2265614 258.921345,43.0520026 259.443809,42.932373 C259.966272,42.8127435 260.459431,42.7529297 260.923301,42.7529297 C261.953579,42.7529297 262.731159,42.9775368 263.256064,43.4267578 C263.780969,43.8759788 264.043418,44.5815382 264.043418,45.543457 L264.043418,51 L262.812949,51 Z M260.249473,49.828125 C260.874476,49.828125 261.37618,49.6535662 261.7546,49.3044434 C262.133019,48.9553205 262.322227,48.4658235 262.322227,47.8359375 L262.322227,47.1328125 L261.282187,47.1767578 C260.471637,47.2060548 259.882043,47.3415515 259.513389,47.583252 C259.144734,47.8249524 258.96041,48.1948217 258.96041,48.6928711 C258.96041,49.054201 259.067831,49.3337392 259.282676,49.5314941 C259.497521,49.729249 259.819783,49.828125 260.249473,49.828125 Z M269.502363,51.1464844 C268.276771,51.1464844 267.345384,50.7888219 266.708174,50.0734863 C266.070964,49.3581507 265.752363,48.3315497 265.752363,46.9936523 C265.752363,45.6313408 266.085612,44.583988 266.752119,43.8515625 C267.418626,43.119137 268.381752,42.7529297 269.641523,42.7529297 C270.49602,42.7529297 271.265055,42.9116195 271.948652,43.2290039 L271.428633,44.6132812 C270.70109,44.3300767 270.10051,44.1884766 269.626875,44.1884766 C268.225501,44.1884766 267.524824,45.118643 267.524824,46.9790039 C267.524824,47.8872116 267.699383,48.5695778 268.048506,49.026123 C268.397629,49.4826683 268.909098,49.7109375 269.58293,49.7109375 C270.349535,49.7109375 271.074625,49.5205097 271.758223,49.1396484 L271.758223,50.6411133 C271.450604,50.8217782 271.122238,50.9511715 270.773115,51.0292969 C270.423992,51.1074223 270.000413,51.1464844 269.502363,51.1464844 Z M276.719121,51.1464844 C275.493529,51.1464844 274.562142,50.7888219 273.924932,50.0734863 C273.287721,49.3581507 272.969121,48.3315497 272.969121,46.9936523 C272.969121,45.6313408 273.30237,44.583988 273.968877,43.8515625 C274.635384,43.119137 275.598509,42.7529297 276.858281,42.7529297 C277.712778,42.7529297 278.481813,42.9116195 279.16541,43.2290039 L278.645391,44.6132812 C277.917848,44.3300767 277.317268,44.1884766 276.843633,44.1884766 C275.442259,44.1884766 274.741582,45.118643 274.741582,46.9790039 C274.741582,47.8872116 274.916141,48.5695778 275.265264,49.026123 C275.614387,49.4826683 276.125856,49.7109375 276.799687,49.7109375 C277.566293,49.7109375 278.291383,49.5205097 278.97498,49.1396484 L278.97498,50.6411133 C278.667362,50.8217782 278.338996,50.9511715 277.989873,51.0292969 C277.64075,51.1074223 277.21717,51.1464844 276.719121,51.1464844 Z M287.854336,46.9350586 C287.854336,48.2583074 287.514984,49.2910119 286.83627,50.0332031 C286.157555,50.7753943 285.21274,51.1464844 284.001797,51.1464844 C283.244957,51.1464844 282.576019,50.9755876 281.994961,50.6337891 C281.413903,50.2919905 280.96713,49.8012727 280.654629,49.1616211 C280.342127,48.5219695 280.185879,47.7797894 280.185879,46.9350586 C280.185879,45.6215755 280.52279,44.5961951 281.196621,43.8588867 C281.870453,43.1215783 282.82015,42.7529297 284.045742,42.7529297 C285.217623,42.7529297 286.145348,43.1301232 286.828945,43.8845215 C287.512542,44.6389198 287.854336,45.6557553 287.854336,46.9350586 Z M281.95834,46.9350586 C281.95834,48.8051851 282.649251,49.7402344 284.031094,49.7402344 C285.398288,49.7402344 286.081875,48.8051851 286.081875,46.9350586 C286.081875,45.0844634 285.393405,44.1591797 284.016445,44.1591797 C283.293785,44.1591797 282.770109,44.3984351 282.4454,44.8769531 C282.120692,45.3554711 281.95834,46.0414994 281.95834,46.9350586 Z M295.334766,51 L295.093066,49.9379883 L295.005176,49.9379883 C294.765917,50.3139667 294.425344,50.6093739 293.983447,50.8242188 C293.541551,51.0390636 293.037405,51.1464844 292.470996,51.1464844 C291.489546,51.1464844 290.757131,50.9023462 290.27373,50.4140625 C289.79033,49.9257788 289.548633,49.1860401 289.548633,48.1948242 L289.548633,42.8994141 L291.284473,42.8994141 L291.284473,47.8945312 C291.284473,48.5146515 291.411425,48.9797348 291.665332,49.2897949 C291.91924,49.5998551 292.317185,49.7548828 292.85918,49.7548828 C293.58184,49.7548828 294.11284,49.5388205 294.452197,49.1066895 C294.791554,48.6745584 294.96123,47.9506887 294.96123,46.9350586 L294.96123,42.8994141 L296.689746,42.8994141 L296.689746,51 L295.334766,51 Z M306.059824,51 L304.331309,51 L304.331309,46.0195312 C304.331309,45.3945281 304.205577,44.9282242 303.954111,44.6206055 C303.702645,44.3129867 303.303479,44.1591797 302.756602,44.1591797 C302.029059,44.1591797 301.496838,44.3740213 301.159922,44.8037109 C300.823006,45.2334006 300.654551,45.9536082 300.654551,46.9643555 L300.654551,51 L298.933359,51 L298.933359,42.8994141 L300.281016,42.8994141 L300.522715,43.9614258 L300.610605,43.9614258 C300.854747,43.5756817 301.201424,43.2778331 301.650645,43.0678711 C302.099866,42.8579091 302.597907,42.7529297 303.144785,42.7529297 C305.088154,42.7529297 306.059824,43.7416893 306.059824,45.7192383 L306.059824,51 Z M311.262422,49.7548828 C311.682346,49.7548828 312.102264,49.6889655 312.522187,49.5571289 L312.522187,50.8535156 C312.331757,50.9365239 312.086398,51.0061032 311.786104,51.0622559 C311.485809,51.1184085 311.174533,51.1464844 310.852266,51.1464844 C309.221398,51.1464844 308.405977,50.287118 308.405977,48.5683594 L308.405977,44.203125 L307.30002,44.203125 L307.30002,43.4414062 L308.486543,42.8115234 L309.07248,41.0976562 L310.134492,41.0976562 L310.134492,42.8994141 L312.441621,42.8994141 L312.441621,44.203125 L310.134492,44.203125 L310.134492,48.5390625 C310.134492,48.9541036 310.238251,49.2604971 310.445771,49.458252 C310.653292,49.6560068 310.925506,49.7548828 311.262422,49.7548828 Z M319.372734,48.6928711 C319.372734,49.4838907 319.084651,50.0905741 318.508477,50.5129395 C317.932302,50.9353048 317.107115,51.1464844 316.032891,51.1464844 C314.953784,51.1464844 314.087093,50.9829118 313.432793,50.6557617 L313.432793,49.1689453 C314.384946,49.6084006 315.271168,49.828125 316.091484,49.828125 C317.15106,49.828125 317.68084,49.508304 317.68084,48.8686523 C317.68084,48.6635732 317.622247,48.4926765 317.505059,48.355957 C317.387871,48.2192376 317.195001,48.0776375 316.926445,47.9311523 C316.657889,47.7846672 316.284358,47.6186533 315.80584,47.4331055 C314.873218,47.0717755 314.242121,46.710451 313.912529,46.3491211 C313.582938,45.9877912 313.418145,45.5190458 313.418145,44.9428711 C313.418145,44.2495083 313.697683,43.7111836 314.256768,43.3278809 C314.815852,42.9445782 315.576343,42.7529297 316.538262,42.7529297 C317.490415,42.7529297 318.391285,42.9457989 319.240898,43.331543 L318.684258,44.6279297 C317.81023,44.2665998 317.075374,44.0859375 316.479668,44.0859375 C315.57146,44.0859375 315.117363,44.344724 315.117363,44.8623047 C315.117363,45.1162122 315.23577,45.3310538 315.472588,45.5068359 C315.709405,45.6826181 316.225758,45.9243149 317.02166,46.2319336 C317.690609,46.490724 318.176444,46.727538 318.47918,46.9423828 C318.781916,47.1572276 319.006523,47.4050279 319.153008,47.685791 C319.299493,47.9665541 319.372734,48.3022441 319.372734,48.6928711 Z M320.766738,50.0844727 C320.766738,49.7280256 320.859511,49.4545908 321.045059,49.2641602 C321.230606,49.0737295 321.499158,48.9785156 321.850723,48.9785156 C322.20717,48.9785156 322.478163,49.0773916 322.663711,49.2751465 C322.849259,49.4729014 322.942031,49.7426741 322.942031,50.0844727 C322.942031,50.4311541 322.848038,50.7058095 322.660049,50.9084473 C322.47206,51.111085 322.202287,51.2124023 321.850723,51.2124023 C321.499158,51.2124023 321.230606,51.1123057 321.045059,50.9121094 C320.859511,50.7119131 320.766738,50.4360369 320.766738,50.0844727 Z" id="Account-access-autho" fill="#33334F"></path>
                                <g id="shield-off-outline" transform="translate(0.000000, 3.000000)" fill="#E6E1E1">
                                    <path d="M3.42634207,2.58790523 C2.91930416,2.08086733 2.18028032,1.88284648 1.48765366,2.06843524 C0.795026996,2.25402399 0.254023991,2.795027 0.0684352365,3.48765366 C-0.117153518,4.18028032 0.0808673257,4.91930416 0.587905231,5.42634207 L32.5702921,37.408729 C32.9456186,37.7871459 33.456529,38 33.9895106,38 C34.5224921,38 35.0334025,37.7871459 35.408729,37.408729 C35.7871459,37.0334025 36,36.5224921 36,35.9895106 C36,35.456529 35.7871459,34.9456186 35.408729,34.5702921 L3.42634207,2.58790523 Z" id="Path"></path>
                                    <path d="M18.8513514,35.5692024 L18.2432432,35.913468 L17.6351351,35.5692024 C9.25144428,30.8549332 4.06100113,21.9931675 4.05405405,12.381903 L4.05405405,12.0983902 L4.37837838,11.916132 L1.47972973,9 C0.551087361,9.76255209 0.00905817247,10.8975012 0,12.0983902 L0,12.381903 C0.0106948903,23.4592598 5.98990361,33.673016 15.6486486,39.1131127 L16.2567568,39.4573783 C17.5110854,40.1808739 19.0564821,40.1808739 20.3108108,39.4573783 L20.9189189,39.1131127 C23.1284335,37.8379308 25.1710604,36.2938188 27,34.5161547 L24.1216216,31.6405246 C22.5422416,33.1721827 20.7707124,34.4927539 18.8513514,35.5692024 Z" id="Path"></path>
                                    <path d="M34.0261685,8.49603469 L20.2104604,0.541001217 C18.9891475,-0.180333739 17.484428,-0.180333739 16.2631152,0.541001217 L9,4.76080324 L11.881562,7.80955972 L18.2367878,4.07432827 L32.052496,12.0293617 L32.052496,12.3120279 C32.054966,16.7693003 30.9478139,21.1537968 28.8354096,25.0521957 L31.7367083,28 C34.5236231,23.2635737 35.9973715,17.8403026 35.9998411,12.3120279 L35.9998411,12.0293617 C36.0125786,10.5737614 35.2585101,9.22380571 34.0261685,8.49603469 Z" id="Path"></path>
                                </g>
                            </g>
                            <g id="refresh-outline" transform="translate(377.000000, 6.000000)" fill="#000000">
                                <rect id="Rectangle" opacity="0" x="0" y="0" width="24" height="24"></rect>
                                <path d="M20.3,13.43 C19.775525,13.2665367 19.2173923,13.5567657 19.05,14.08 C18.080433,17.0445016 15.2988126,19.0365791 12.18,19 C8.26638853,19.0444845 5.05487204,15.9134796 5,12 C5.05487204,8.08652039 8.26638853,4.95551545 12.18,5 C13.8775755,4.99589997 15.5229148,5.58680676 16.83,6.67 L14.66,6.31 C14.3973278,6.2667794 14.1282638,6.33007515 13.9124081,6.48586667 C13.6965524,6.64165819 13.5517227,6.87708574 13.51,7.14 C13.4667794,7.40267217 13.5300752,7.67173616 13.6858667,7.88759188 C13.8416582,8.1034476 14.0770857,8.24827734 14.34,8.29 L18.58,8.99 L18.75,8.99 C18.8659548,8.9898636 18.9810025,8.96956107 19.09,8.93 C19.1266309,8.91609515 19.1604929,8.89577796 19.19,8.87 C19.2617,8.84333894 19.329088,8.80627552 19.39,8.76 L19.48,8.65 C19.48,8.6 19.57,8.56 19.61,8.5 C19.65,8.44 19.61,8.4 19.66,8.36 C19.6876324,8.30176179 19.7110265,8.24160559 19.73,8.18 L20.48,4.18 C20.5478805,3.82273441 20.4200057,3.4563936 20.1445448,3.2189746 C19.869084,2.9815556 19.4878861,2.90912801 19.1445448,3.0289746 C18.8012035,3.14882119 18.5478805,3.44273441 18.48,3.8 L18.21,5.25 C16.5359894,3.79924109 14.3951778,3.00043076 12.18,3 C7.16186233,2.95558192 3.05494995,6.9819666 3,12 C3.05494995,17.0180334 7.16186233,21.0444181 12.18,21 C16.1897527,21.0616105 19.7692635,18.4967002 21,14.68 C21.076633,14.4213454 21.0455121,14.1427009 20.9137025,13.9073266 C20.7818929,13.6719523 20.5605771,13.4998169 20.3,13.43 Z" id="Path"></path>
                            </g>
                        </g>
                        <g id="Item" transform="translate(211.000000, 266.000000)" fill="#FF1D0E">
                            <g id="Group-4-Copy-2">
                                <g id="Group-6">
                                    <g id="Group-5">
                                        <rect id="Rectangle" opacity="0.12" x="0" y="6" width="198" height="38" rx="3"></rect>
                                        <path d="M69.8825,30 L69.8825,19.35 L73.0925,19.35 C73.9425043,19.35 74.6749969,19.4849987 75.29,19.755 C75.9050031,20.0250013 76.3774983,20.4099975 76.7075,20.91 C77.0375016,21.4100025 77.2025,22.0049965 77.2025,22.695 C77.2025,23.1250022 77.1250008,23.5274981 76.97,23.9025 C76.8149992,24.2775019 76.5950014,24.6149985 76.31,24.915 C76.0249986,25.2150015 75.682502,25.4599991 75.2825,25.65 L77.7575,30 L75.7325,30 L73.6775,26.13 C73.5674994,26.1400001 73.4450007,26.1475 73.31,26.1525 C73.1749993,26.1575 73.0375007,26.16 72.8975,26.16 C72.5474983,26.16 72.1425023,26.1250003 71.6825,26.055 L71.6825,30 L69.8825,30 Z M71.6825,20.94 L71.6825,24.465 C71.8925011,24.5050002 72.1099989,24.5324999 72.335,24.5475 C72.5600011,24.5625001 72.7824989,24.57 73.0025,24.57 C73.7425037,24.57 74.317498,24.4100016 74.7275,24.09 C75.137502,23.7699984 75.3425,23.3250028 75.3425,22.755 C75.3425,22.1849972 75.142502,21.7400016 74.7425,21.42 C74.342498,21.0999984 73.7825036,20.94 73.0625,20.94 L71.6825,20.94 Z M79.1525,30 L79.1525,19.35 L85.6025,19.35 L85.6025,20.925 L80.9525,20.925 L80.9525,23.715 L85.1525,23.715 L85.1525,25.29 L80.9525,25.29 L80.9525,28.425 L85.7525,28.425 L85.7525,30 L79.1525,30 Z M87.6725,30 L87.6725,19.35 L89.4425,19.35 L92.9825,25.875 L96.5375,19.35 L98.2325,19.35 L98.2325,30 L96.4175,30 L96.4175,22.65 L93.6275,27.78 L92.2775,27.78 L89.4875,22.65 L89.4875,30 L87.6725,30 Z M105.3575,30.3 C104.737497,30.3 104.155003,30.2100009 103.61,30.03 C103.064997,29.8499991 102.570002,29.5925017 102.125,29.2575 C101.679998,28.9224983 101.297502,28.5250023 100.9775,28.065 C100.657498,27.6049977 100.410001,27.0900029 100.235,26.52 C100.059999,25.9499972 99.9725,25.3400032 99.9725,24.69 C99.9725,24.0399968 100.059999,23.4300029 100.235,22.86 C100.410001,22.2899972 100.657498,21.7725023 100.9775,21.3075 C101.297502,20.8424977 101.682498,20.4400017 102.1325,20.1 C102.582502,19.7599983 103.079997,19.5000009 103.625,19.32 C104.170003,19.1399991 104.752497,19.05 105.3725,19.05 C105.992503,19.05 106.574997,19.1399991 107.12,19.32 C107.665003,19.5000009 108.159998,19.7574983 108.605,20.0925 C109.050002,20.4275017 109.432498,20.8249977 109.7525,21.285 C110.072502,21.7450023 110.317499,22.2599972 110.4875,22.83 C110.657501,23.4000028 110.7425,24.0099967 110.7425,24.66 C110.7425,25.3100032 110.655001,25.9199972 110.48,26.49 C110.304999,27.0600029 110.057502,27.5774977 109.7375,28.0425 C109.417498,28.5075023 109.035002,28.9099983 108.59,29.25 C108.144998,29.5900017 107.650003,29.8499991 107.105,30.03 C106.559997,30.2100009 105.977503,30.3 105.3575,30.3 Z M105.3575,28.62 C105.867503,28.62 106.334998,28.522501 106.76,28.3275 C107.185002,28.132499 107.552498,27.8600017 107.8625,27.51 C108.172502,27.1599983 108.414999,26.7425024 108.59,26.2575 C108.765001,25.7724976 108.8525,25.2450028 108.8525,24.675 C108.8525,24.1049972 108.765001,23.5775024 108.59,23.0925 C108.414999,22.6074976 108.172502,22.1900018 107.8625,21.84 C107.552498,21.4899982 107.185002,21.217501 106.76,21.0225 C106.334998,20.827499 105.867503,20.73 105.3575,20.73 C104.847497,20.73 104.380002,20.827499 103.955,21.0225 C103.529998,21.217501 103.162502,21.4899982 102.8525,21.84 C102.542498,22.1900018 102.300001,22.6074976 102.125,23.0925 C101.949999,23.5775024 101.8625,24.1049972 101.8625,24.675 C101.8625,25.2450028 101.949999,25.7724976 102.125,26.2575 C102.300001,26.7425024 102.542498,27.1599983 102.8525,27.51 C103.162502,27.8600017 103.529998,28.132499 103.955,28.3275 C104.380002,28.522501 104.847497,28.62 105.3575,28.62 Z M115.3325,30 L111.2525,19.35 L113.2475,19.35 L116.3525,27.93 L119.4425,19.35 L121.3625,19.35 L117.2825,30 L115.3325,30 Z M122.6975,30 L122.6975,19.35 L129.1475,19.35 L129.1475,20.925 L124.4975,20.925 L124.4975,23.715 L128.6975,23.715 L128.6975,25.29 L124.4975,25.29 L124.4975,28.425 L129.2975,28.425 L129.2975,30 L122.6975,30 Z" id="REMOVE"></path>
                                    </g>
                                </g>
                            </g>
                        </g>
                    </g>
                </g>
                <rect id="Rectangle" fill="#F6F5F5" x="35" y="141" width="103" height="15" rx="7.5"></rect>
                <rect id="Rectangle-Copy" fill="#F6F5F5" x="35" y="210" width="103" height="15" rx="7.5"></rect>
                <rect id="Rectangle-Copy-2" fill="#F6F5F5" x="35" y="286" width="103" height="15" rx="7.5"></rect>
            </g>
        </g>
    </g>
</svg>