<?xml version="1.0" encoding="UTF-8"?>
<!DOCTYPE svg PUBLIC "-//W3C//DTD SVG 1.1//EN" "http://www.w3.org/Graphics/SVG/1.1/DTD/svg11.dtd">
<svg version="1.1" xmlns="http://www.w3.org/2000/svg" xmlns:xlink="http://www.w3.org/1999/xlink" x="0" y="0" width="400" height="200" viewBox="0, 0, 400, 200">
  <g id="Calque_1" transform="translate(0, 0)">
    <g>
      <path d="M36,30.211 C36,30.211 130,22 190,22 C250,22 360,30.211 360,30.211 C366.627,30.211 372,34.116 372,38.934 L372,161.066 C372,165.884 366.627,169.789 360,169.789 C360,169.789 262,178 190,178 C118,178 36,169.789 36,169.789 C29.373,169.789 24,165.884 24,161.066 L24,38.934 C24,34.116 29.373,30.211 36,30.211 z" fill="#489DFF"/>
      <path d="M36,30.211 C36,30.211 130,22 190,22 C250,22 360,30.211 360,30.211 C366.627,30.211 372,34.116 372,38.934 L372,161.066 C372,165.884 366.627,169.789 360,169.789 C360,169.789 262,178 190,178 C118,178 36,169.789 36,169.789 C29.373,169.789 24,165.884 24,161.066 L24,38.934 C24,34.116 29.373,30.211 36,30.211 z" fill-opacity="0" stroke="#288CFF" stroke-width="1"/>
    </g>
    <path d="M87.93,107.26 C89.91,109.9 92.61,109.9 94.77,107.26 L104.73,94.66 L104.73,116.86 C104.73,119.5 106.41,121 108.57,121 C110.49,121 112.17,119.5 112.17,116.86 L112.17,83.08 C112.17,78.94 107.31,77.98 105.33,80.44 L91.65,98.92 L78.45,81.1 C77.43,79.96 76.41,78.94 74.67,78.94 C73.71,78.94 71.07,79.96 71.07,83.08 L71.07,116.86 C71.07,119.5 72.75,121 74.67,121 C76.83,121 78.99,119.5 78.99,116.86 L78.99,94.66 z" fill="#FFFFFF"/>
    <path d="M143.67,109.06 C142.77,117.58 130.11,115.06 125.19,111.7 C123.15,110.02 121.41,110.56 119.85,112.12 C118.77,113.74 118.71,116.38 120.69,118 C128.97,124.84 151.05,124.48 151.47,109.24 C151.89,93.28 125.79,98.92 127.41,89.08 C128.67,82.84 138.75,84.16 143.19,86.98 C146.79,89.62 151.11,84.4 147.03,81.1 C138.75,74.74 121.17,76.84 119.79,88.48 C117.93,105.52 142.89,100.18 143.67,109.06 z" fill="#FFFFFF"/>
    <path d="M169.65,117.28 C169.65,122.62 177.57,122.5 177.57,117.28 L177.57,86.98 L187.53,86.98 C192.87,86.98 192.87,79.3 187.53,79.3 L159.15,79.3 C153.93,79.3 153.93,86.98 159.15,86.98 L169.65,86.98 z" fill="#FFFFFF"/>
    <path d="M205.23,106.24 L214.65,106.24 L223.71,119.2 C227.31,123.76 233.55,119.32 230.43,114.7 L222.45,104.98 C235.17,99.88 232.05,79.48 216.81,79.48 L200.85,79.48 C198.87,79.48 197.25,81.04 197.25,83.14 L197.25,117.22 C197.25,122.5 205.23,122.32 205.23,117.1 z M205.23,86.74 L216.81,86.74 C225.09,86.74 224.61,99.34 216.81,99.34 L205.23,99.34 z" fill="#FFFFFF"/>
    <path d="M242,116.92 C242,122.56 250.7,122.26 250.7,116.92 L250.7,115.78 C250.7,110.38 242,110.38 242,115.78 z" fill="#FFFFFF"/>
    <path d="M263.01,117.28 C263.01,122.62 270.93,122.5 270.93,117.28 L270.93,86.98 L280.89,86.98 C286.23,86.98 286.23,79.3 280.89,79.3 L252.51,79.3 C247.29,79.3 247.29,86.98 252.51,86.98 L263.01,86.98 z" fill="#FFFFFF"/>
    <path d="M312.09,118.3 L327.39,84.76 C329.43,79.78 322.47,76.9 320.07,81.46 L314.73,93.52 L307.95,109.36 L301.05,93.52 L295.71,81.46 C293.07,76.48 285.99,80.38 288.33,85.12 L304.17,118.3 C306.45,122.98 310.71,122.08 312.09,118.3 z" fill="#FFFFFF"/>
    <g>
      <path d="M82,34" fill="#489DFF"/>
      <path d="M82,34" fill-opacity="0" stroke="#288CFF" stroke-width="1"/>
    </g>
  </g>
</svg>
