<?xml version="1.0" encoding="UTF-8"?>
<svg width="977px" height="949px" viewBox="0 0 977 949" version="1.1" xmlns="http://www.w3.org/2000/svg" xmlns:xlink="http://www.w3.org/1999/xlink">
    <!-- Generator: Sketch 62 (91390) - https://sketch.com -->
    <title>Group 9</title>
    <desc>Created with Sketch.</desc>
    <g id="Page-1" stroke="none" stroke-width="1" fill="none" fill-rule="evenodd">
        <g id="Group-9">
            <g id="Group-8-Copy" transform="translate(530.000000, 2.000000)">
                <g id="Group-6-Copy" transform="translate(143.000000, 133.000000)" fill="#212529" fill-rule="nonzero">
                    <path d="M81,0 C36.2652187,0 0,36.2652187 0,81 C0,125.734781 36.2652187,162 81,162 C125.734781,162 162,125.734781 162,81 C162,36.2652187 125.734781,0 81,0 Z M81,121.5 C58.6313437,121.5 40.5,103.368656 40.5,81 C40.5,58.6313438 58.6313437,40.5 81,40.5 C103.368656,40.5 121.5,58.6313438 121.5,81 C121.5,103.368656 103.368656,121.5 81,121.5 Z" id="Shape-Copy"></path>
                </g>
                <g id="Group-6-Copy-5">
                    <g id="Group-7" stroke="#212529" stroke-width="42">
                        <rect id="Rectangle" x="21" y="21" width="405" height="905" rx="62"></rect>
                    </g>
                    <g id="Group-5" transform="translate(82.000000, 562.000000)" fill="#212529" fill-rule="nonzero">
                        <circle id="Oval" cx="143" cy="142" r="20"></circle>
                        <path d="M142.5,0 C63.7992857,0 0,63.5754286 0,142 C0,220.424571 63.7992857,284 142.5,284 C221.200714,284 285,220.424571 285,142 C284.910937,63.6134643 221.162545,0.08875 142.5,0 Z M142.5,243.428571 C86.2862946,243.428571 40.7142857,198.016464 40.7142857,142 C40.7142857,85.9835357 86.2862946,40.5714286 142.5,40.5714286 C198.713705,40.5714286 244.285714,85.9835357 244.285714,142 C244.219554,197.988571 198.685714,243.362643 142.5,243.428571 Z" id="Shape"></path>
                    </g>
                </g>
            </g>
            <g id="Group-8-Copy-2">
                <g id="Group-6-Copy" transform="translate(143.000000, 133.000000)" fill="#212529" fill-rule="nonzero">
                    <path d="M81,0 C36.2652187,0 0,36.2652187 0,81 C0,125.734781 36.2652187,162 81,162 C125.734781,162 162,125.734781 162,81 C162,36.2652187 125.734781,0 81,0 Z M81,121.5 C58.6313437,121.5 40.5,103.368656 40.5,81 C40.5,58.6313438 58.6313437,40.5 81,40.5 C103.368656,40.5 121.5,58.6313438 121.5,81 C121.5,103.368656 103.368656,121.5 81,121.5 Z" id="Shape-Copy"></path>
                </g>
                <g id="Group-6-Copy-5">
                    <g id="Group-7" stroke="#212529" stroke-width="42">
                        <rect id="Rectangle" x="21" y="21" width="405" height="905" rx="62"></rect>
                    </g>
                    <g id="Group-5" transform="translate(82.000000, 562.000000)" fill="#212529" fill-rule="nonzero">
                        <circle id="Oval" cx="143" cy="142" r="20"></circle>
                        <path d="M142.5,0 C63.7992857,0 0,63.5754286 0,142 C0,220.424571 63.7992857,284 142.5,284 C221.200714,284 285,220.424571 285,142 C284.910937,63.6134643 221.162545,0.08875 142.5,0 Z M142.5,243.428571 C86.2862946,243.428571 40.7142857,198.016464 40.7142857,142 C40.7142857,85.9835357 86.2862946,40.5714286 142.5,40.5714286 C198.713705,40.5714286 244.285714,85.9835357 244.285714,142 C244.219554,197.988571 198.685714,243.362643 142.5,243.428571 Z" id="Shape"></path>
                    </g>
                </g>
            </g>
        </g>
    </g>
</svg>