<?xml version="1.0" encoding="UTF-8"?>
<svg width="1397px" height="949px" viewBox="0 0 1397 949" version="1.1" xmlns="http://www.w3.org/2000/svg" xmlns:xlink="http://www.w3.org/1999/xlink">
    <!-- Generator: Sketch 62 (91390) - https://sketch.com -->
    <title>Group 8</title>
    <desc>Created with Sketch.</desc>
    <g id="Page-1" stroke="none" stroke-width="1" fill="none" fill-rule="evenodd">
        <g id="Group-8">
            <g id="Group-6">
                <g id="Group-6-Copy-4" transform="translate(950.000000, 0.000000)">
                    <g id="Group-7"></g>
                    <g id="Group-5">
                        <circle id="Oval" fill="#212529" fill-rule="nonzero" cx="224" cy="222" r="20"></circle>
                        <path d="M223.5,80 C144.799286,80 81,143.575429 81,222 C81,300.424571 144.799286,364 223.5,364 C302.200714,364 366,300.424571 366,222 C365.910937,143.613464 302.162545,80.08875 223.5,80 Z M223.5,323.428571 C167.286295,323.428571 121.714286,278.016464 121.714286,222 C121.714286,165.983536 167.286295,120.571429 223.5,120.571429 C279.713705,120.571429 325.285714,165.983536 325.285714,222 C325.219554,277.988571 279.685714,323.362643 223.5,323.428571 Z" id="Shape" fill="#212529" fill-rule="nonzero"></path>
                        <rect id="Rectangle" stroke="#22252A" stroke-width="42" x="21" y="21" width="405" height="405" rx="62"></rect>
                    </g>
                </g>
                <g id="Group-6-Copy-8" transform="translate(475.000000, 0.000000)">
                    <g id="Group-7"></g>
                    <g id="Group-5">
                        <circle id="Oval" fill="#212529" fill-rule="nonzero" cx="224" cy="222" r="20"></circle>
                        <path d="M223.5,80 C144.799286,80 81,143.575429 81,222 C81,300.424571 144.799286,364 223.5,364 C302.200714,364 366,300.424571 366,222 C365.910937,143.613464 302.162545,80.08875 223.5,80 Z M223.5,323.428571 C167.286295,323.428571 121.714286,278.016464 121.714286,222 C121.714286,165.983536 167.286295,120.571429 223.5,120.571429 C279.713705,120.571429 325.285714,165.983536 325.285714,222 C325.219554,277.988571 279.685714,323.362643 223.5,323.428571 Z" id="Shape" fill="#212529" fill-rule="nonzero"></path>
                        <rect id="Rectangle" stroke="#212529" stroke-width="42" x="21" y="21" width="405" height="405" rx="62"></rect>
                    </g>
                </g>
                <g id="Group-6-Copy-9">
                    <g id="Group-7"></g>
                    <g id="Group-5">
                        <circle id="Oval" fill="#212529" fill-rule="nonzero" cx="224" cy="222" r="20"></circle>
                        <path d="M223.5,80 C144.799286,80 81,143.575429 81,222 C81,300.424571 144.799286,364 223.5,364 C302.200714,364 366,300.424571 366,222 C365.910937,143.613464 302.162545,80.08875 223.5,80 Z M223.5,323.428571 C167.286295,323.428571 121.714286,278.016464 121.714286,222 C121.714286,165.983536 167.286295,120.571429 223.5,120.571429 C279.713705,120.571429 325.285714,165.983536 325.285714,222 C325.219554,277.988571 279.685714,323.362643 223.5,323.428571 Z" id="Shape" fill="#212529" fill-rule="nonzero"></path>
                        <rect id="Rectangle" stroke="#212529" stroke-width="42" x="21" y="21" width="405" height="405" rx="62"></rect>
                    </g>
                </g>
                <g id="Group-6-Copy-10" transform="translate(0.000000, 502.000000)">
                    <g id="Group-7"></g>
                    <g id="Group-5">
                        <circle id="Oval" fill="#212529" fill-rule="nonzero" cx="224" cy="222" r="20"></circle>
                        <path d="M223.5,80 C144.799286,80 81,143.575429 81,222 C81,300.424571 144.799286,364 223.5,364 C302.200714,364 366,300.424571 366,222 C365.910937,143.613464 302.162545,80.08875 223.5,80 Z M223.5,323.428571 C167.286295,323.428571 121.714286,278.016464 121.714286,222 C121.714286,165.983536 167.286295,120.571429 223.5,120.571429 C279.713705,120.571429 325.285714,165.983536 325.285714,222 C325.219554,277.988571 279.685714,323.362643 223.5,323.428571 Z" id="Shape" fill="#212529" fill-rule="nonzero"></path>
                        <rect id="Rectangle" stroke="#212529" stroke-width="42" x="21" y="21" width="405" height="405" rx="62"></rect>
                    </g>
                </g>
                <g id="Group-6-Copy-11" transform="translate(475.000000, 502.000000)">
                    <g id="Group-7"></g>
                    <g id="Group-5">
                        <circle id="Oval" fill="#212529" fill-rule="nonzero" cx="224" cy="222" r="20"></circle>
                        <path d="M223.5,80 C144.799286,80 81,143.575429 81,222 C81,300.424571 144.799286,364 223.5,364 C302.200714,364 366,300.424571 366,222 C365.910937,143.613464 302.162545,80.08875 223.5,80 Z M223.5,323.428571 C167.286295,323.428571 121.714286,278.016464 121.714286,222 C121.714286,165.983536 167.286295,120.571429 223.5,120.571429 C279.713705,120.571429 325.285714,165.983536 325.285714,222 C325.219554,277.988571 279.685714,323.362643 223.5,323.428571 Z" id="Shape" fill="#212529" fill-rule="nonzero"></path>
                        <rect id="Rectangle" stroke="#212529" stroke-width="42" x="21" y="21" width="405" height="405" rx="62"></rect>
                    </g>
                </g>
                <g id="Group-6-Copy-12" transform="translate(950.000000, 502.000000)">
                    <g id="Group-7"></g>
                    <g id="Group-5">
                        <circle id="Oval" fill="#212529" fill-rule="nonzero" cx="224" cy="222" r="20"></circle>
                        <path d="M223.5,80 C144.799286,80 81,143.575429 81,222 C81,300.424571 144.799286,364 223.5,364 C302.200714,364 366,300.424571 366,222 C365.910937,143.613464 302.162545,80.08875 223.5,80 Z M223.5,323.428571 C167.286295,323.428571 121.714286,278.016464 121.714286,222 C121.714286,165.983536 167.286295,120.571429 223.5,120.571429 C279.713705,120.571429 325.285714,165.983536 325.285714,222 C325.219554,277.988571 279.685714,323.362643 223.5,323.428571 Z" id="Shape" fill="#212529" fill-rule="nonzero"></path>
                        <rect id="Rectangle" stroke="#212529" stroke-width="42" x="21" y="21" width="405" height="405" rx="62"></rect>
                    </g>
                </g>
            </g>
        </g>
    </g>
</svg>