<?xml version="1.0" encoding="UTF-8"?>
<svg width="1435px" height="80px" viewBox="0 0 1435 80" version="1.1" xmlns="http://www.w3.org/2000/svg" xmlns:xlink="http://www.w3.org/1999/xlink">
    <!-- Generator: Sketch 52.6 (67491) - http://www.bohemiancoding.com/sketch -->
    <title>Group 27</title>
    <desc>Created with Sketch.</desc>
    <g id="Page-1" stroke="none" stroke-width="1" fill="none" fill-rule="evenodd">
        <g id="Group-27" transform="translate(0.000000, -2.000000)" fill="#FFFFFF">
            <g id="ford-vector-logo-2" transform="translate(0.000000, 2.000000)">
                <g id="ford-vector-logo">
                    <path d="M106.56816,0.306382979 C165.15168,0.306382979 212.8296,18.1787234 212.8296,40.1021277 C212.8296,62.0255319 165.15168,79.8978723 106.56816,79.8978723 C47.98464,79.8978723 0.30672,62.093617 0.30672,40.1021277 C0.30672,17.9744681 47.57568,0.306382979 106.56816,0.306382979 Z M169.00272,28.6978723 C169.13904,28.4595745 169.00272,28.2893617 168.696,28.2893617 C167.09424,28.2893617 164.98128,28.2893617 163.34544,28.2893617 C162.93648,28.2893617 162.732,28.3234043 162.5616,28.6978723 C161.94816,29.8893617 154.45056,41.1234043 153.05328,43.3021277 C152.81472,43.6425532 152.54208,43.5744681 152.508,43.2 C152.37168,41.906383 151.24704,40.4085106 149.47488,39.693617 C148.14576,39.1489362 146.81664,39.0468085 145.45344,39.2170213 C142.99968,39.5574468 140.78448,40.8510638 138.84192,42.3148936 C135.91104,44.5276596 133.4232,47.387234 130.15152,49.5319149 C128.37936,50.6893617 125.95968,51.6765957 124.32384,50.1787234 C122.8584,48.8170213 123.0288,45.787234 125.27808,43.4382979 C125.51664,43.2 125.78928,43.4042553 125.7552,43.6085106 C125.55072,44.6638298 125.82336,45.7191489 126.6072,46.4340426 C127.59552,47.3191489 128.9928,47.4212766 130.1856,46.8425532 C131.61696,46.1276596 132.43488,44.8 132.67344,43.2340426 C133.04832,40.8510638 131.208,38.7404255 128.92464,38.5702128 C127.05024,38.4340426 125.27808,39.0808511 123.50592,40.5446809 C122.61984,41.2595745 122.14272,41.8042553 121.35888,42.893617 C121.18848,43.1659574 120.88176,43.2 120.91584,42.7914894 C121.01808,39.7276596 119.72304,38.0255319 117.20112,37.9574468 C115.25856,37.9234043 113.1456,38.9787234 111.50976,40.2723404 C109.70352,41.7021277 108.16992,43.6085106 106.46592,45.412766 C106.26144,45.6170213 106.09104,45.6170213 106.02288,45.2085106 C105.95472,43.2 105.4776,41.2255319 104.52336,39.8297872 C104.18256,39.3531915 103.50096,39.1148936 102.9216,39.4212766 C102.64896,39.5574468 101.69472,40 101.01312,40.5446809 C100.67232,40.8170213 100.536,41.2255319 100.67232,41.7361702 C101.59248,44.7659574 101.388,48.2042553 100.16112,51.0978723 C99.03648,53.7531915 96.85536,56.1702128 94.26528,56.9531915 C92.56128,57.4978723 90.78912,57.2255319 89.69856,55.7276596 C88.19904,53.6510638 88.81248,50.0425532 91.02768,47.0468085 C93.00432,44.4255319 95.86704,42.7234043 98.69568,41.6680851 C99.03648,41.5319149 99.10464,41.3276596 99.0024,41.0553191 C98.86608,40.5787234 98.59344,39.9659574 98.4912,39.6595745 C98.21856,38.9787234 97.50288,38.8425532 96.6168,38.9446809 C94.53792,39.1829787 92.6976,39.8978723 90.85728,40.8851064 C86.052,43.4723404 83.63232,48.4425532 82.54176,51.1319149 C82.03056,52.4255319 81.58752,53.2085106 81.04224,53.9234043 C80.29248,54.8765957 79.33824,55.7617021 77.56608,57.2595745 C77.39568,57.3957447 77.29344,57.7021277 77.42976,57.9744681 C77.60016,58.3489362 78.52032,59.6085106 78.75888,59.7446809 C79.03152,59.8808511 79.37232,59.6765957 79.50864,59.6085106 C80.73552,58.7914894 82.20096,57.4638298 82.91664,56.5787234 C83.1552,56.2723404 83.42784,56.4085106 83.56416,56.8510638 C84.24576,59.2340426 85.98384,61.1744681 88.40352,61.9914894 C92.83392,63.4893617 97.43472,61.3106383 100.8768,57.5659574 C103.092,55.1829787 103.87584,53.6510638 104.72784,52.5957447 C106.1592,50.8255319 108.98784,46.8765957 112.32768,44.3234043 C113.55456,43.3702128 115.02,42.6553191 115.73568,43.1319149 C116.31504,43.506383 116.51952,44.3914894 115.56528,46.1276596 C112.15728,52.3574468 107.11344,59.7106383 106.19328,61.4808511 C106.02288,61.787234 106.1592,62.0255319 106.5,62.0255319 C108.30624,62.0255319 110.0784,62.0255319 111.68016,62.0255319 C111.9528,62.0255319 112.08912,61.8893617 112.22544,61.6851064 C114.8496,57.5659574 117.33744,53.6510638 119.9616,49.6340426 C120.09792,49.3957447 120.23424,49.5659574 120.23424,49.6680851 C120.3024,50.6212766 120.50688,51.8808511 121.08624,52.7319149 C122.07456,54.2978723 123.50592,54.9446809 125.0736,54.9787234 C126.33456,54.9787234 126.948,54.8085106 128.3112,54.2978723 C129.40176,53.8893617 130.28784,53.3446809 130.96944,52.8680851 C131.3784,52.5957447 131.44656,53.0382979 131.41248,53.106383 C130.79904,56.3744681 131.5488,60.2212766 134.7864,61.8553191 C138.67152,63.7617021 142.93152,61.0723404 145.38528,58.6553191 C145.62384,58.4170213 145.89648,58.4510638 145.89648,58.9617021 C145.96464,59.8808511 146.3736,61.0042553 147.12336,61.7531915 C149.16816,63.8297872 153.32592,63.012766 157.48368,59.7787234 C160.14192,57.7021277 162.97056,54.8085106 165.49248,51.7106383 C165.59472,51.6085106 165.66288,51.4042553 165.49248,51.2 C165.1176,50.7914894 164.53824,50.3489362 164.16336,49.9744681 C163.99296,49.8382979 163.7544,49.8723404 163.584,49.9744681 C160.99392,52.4255319 158.6424,55.2510638 155.30256,57.5659574 C154.17792,58.3489362 152.3376,58.9957447 151.55376,57.906383 C151.24704,57.4978723 151.28112,56.8851064 151.58784,56.1021277 C152.61024,53.7531915 168.1848,30.093617 169.00272,28.6978723 Z M148.4184,48.5446809 C148.45248,48.7148936 148.69104,48.8851064 148.9296,48.987234 C148.99776,49.0212766 149.06592,49.0893617 148.96368,49.2595745 C148.31616,50.6893617 147.70272,51.506383 146.85072,52.7319149 C146.10096,53.8553191 145.21488,54.7404255 144.19248,55.6255319 C142.6248,56.9191489 140.44368,58.3148936 138.63744,57.3957447 C137.8536,56.987234 137.47872,55.8638298 137.5128,54.9446809 C137.54688,52.3914894 138.67152,49.7702128 140.78448,47.2170213 C143.34048,44.0851064 146.16912,42.4510638 148.00944,43.3361702 C149.91792,44.2553191 149.30448,46.4680851 148.45248,48.2042553 C148.38432,48.306383 148.38432,48.4425532 148.4184,48.5446809 Z M56.09568,62.0255319 C60.73056,61.9914894 65.05872,60.5957447 70.2048,55.2851064 C75.07824,50.3489362 79.54272,42.9276596 83.70048,36.0851064 C83.8368,35.8808511 83.90496,35.7446809 84.55248,35.6765957 C87.14256,35.3361702 90.9936,34.9617021 93.48144,34.8255319 C94.02672,34.7914894 94.12896,34.7914894 94.36752,35.0638298 C95.01504,35.8468085 95.96928,36.5617021 96.75312,36.9702128 C97.128,37.1744681 97.2984,37.2765957 97.60512,37.2765957 C97.94592,37.2765957 98.25264,37.0723404 98.42304,36.8680851 C98.69568,36.5957447 98.76384,36.2212766 98.62752,35.9829787 C98.4912,35.7106383 96.7872,34.7574468 96.71904,34.3829787 C96.68496,34.1446809 96.9576,34.0765957 96.9576,34.0765957 C98.21856,33.7021277 99.54768,32.8851064 100.33152,31.3531915 C101.11536,29.8553191 101.25168,27.8468085 99.82032,26.7234043 C98.55936,25.7361702 96.68496,25.906383 95.15136,27.2680851 C93.65184,28.5957447 93.17472,30.5361702 93.3792,32.2042553 C93.41328,32.4765957 93.41328,32.5787234 93.00432,32.612766 C90.72096,32.7829787 88.53984,32.8510638 86.08608,32.987234 C85.91568,32.987234 85.84752,32.8851064 85.94976,32.7829787 C88.7784,27.8808511 93.00432,24.4085106 97.6392,20.9702128 C97.94592,20.7659574 97.84368,20.3234043 97.84368,19.9489362 C106.26144,21.7531915 114.37248,25.1574468 123.09696,25.0893617 C126.70944,25.0553191 130.15152,24.5106383 133.45728,22.706383 C136.35408,21.1404255 137.5128,19.6765957 137.61504,18.1446809 C137.6832,17.0893617 136.96752,16.4085106 135.91104,16.6468085 C127.1184,18.6893617 118.70064,18.6553191 109.94208,17.6 C98.4912,16.2042553 87.5856,13.1404255 76.06656,14.093617 C66.52416,14.8765957 57.4248,20.2553191 57.39072,28.4255319 C57.39072,32.5787234 60.3216,35.9148936 64.88832,35.7787234 C70.23888,35.6085106 74.6352,31.3191489 76.95264,25.906383 C77.80464,23.8297872 76.20288,22.9787234 75.41904,24.1702128 C74.02176,26.2808511 72.0792,27.9489362 70.00032,28.9702128 C67.4784,30.1957447 64.78608,29.8553191 63.96816,27.812766 C62.84352,24.9191489 65.22912,20.5957447 70.68192,18.5531915 C78.5544,15.6595745 86.80176,17.5659574 94.7424,19.0638298 C94.87872,19.0638298 95.28768,19.3021277 94.9128,19.506383 C93.48144,20.2553191 92.08416,20.9021277 89.90304,22.7744681 C88.33536,24.1361702 86.29056,25.906383 84.72288,27.8468085 C83.1552,29.7531915 82.03056,31.4893617 80.56512,33.3617021 C80.36064,33.6340426 80.12208,33.6340426 80.12208,33.6340426 C76.54368,34.212766 72.99936,34.6212766 69.79584,36.8680851 C69.14832,37.3446809 68.8416,38.1617021 69.25056,38.7744681 C69.62544,39.3531915 70.44336,39.387234 71.02272,38.9787234 C72.99936,37.4808511 75.07824,36.8 77.42976,36.7319149 C77.532,36.7319149 77.56608,36.7319149 77.60016,36.8 C77.63424,36.8340426 77.60016,36.9021277 77.56608,36.9702128 C74.02176,41.8723404 73.13568,42.9957447 70.47744,46.0255319 C69.11424,47.5914894 67.78512,48.9191489 66.2856,50.2808511 C60.25344,55.8978723 53.74416,55.7957447 51.42672,52.2893617 C50.02944,50.1787234 50.19984,47.9659574 51.12,46.1276596 C52.24464,43.8808511 54.528,42.212766 56.4024,41.2595745 C57.11808,40.8851064 57.32256,40 56.60688,39.1829787 C56.16384,38.6382979 55.10736,38.5702128 54.28944,38.706383 C51.8016,39.1489362 48.9048,41.0212766 47.16672,43.2680851 C45.22416,45.787234 44.23584,48.8510638 44.57664,52.2893617 C45.19008,58.4851064 50.30208,62.0595745 56.09568,62.0255319 Z M95.7648,31.5574468 C95.62848,30.6042553 95.9352,29.3787234 96.9576,28.4595745 C97.4688,28.0170213 98.1504,27.9489362 98.55936,28.2893617 C99.0024,28.6978723 98.79792,29.6851064 98.3208,30.3659574 C97.8096,31.1148936 96.92352,31.7617021 96.13968,31.9319149 C95.96928,31.9659574 95.83296,31.8978723 95.7648,31.5574468 Z M106.56816,76.4595745 C162.80016,76.4595745 208.3992,60.187234 208.3992,40.1361702 C208.3992,20.0851064 162.80016,3.81276596 106.56816,3.81276596 C50.33616,3.81276596 4.73712,20.0851064 4.73712,40.1361702 C4.73712,60.187234 50.33616,76.4595745 106.56816,76.4595745 Z M106.56816,6.80851064 C160.82352,6.80851064 204.8208,21.787234 204.8208,40.1021277 C204.8208,58.4170213 160.82352,73.3957447 106.56816,73.3957447 C52.3128,73.3957447 8.31552,58.4170213 8.31552,40.1021277 C8.31552,21.787234 52.3128,6.80851064 106.56816,6.80851064 Z" id="Combined-Shape"></path>
                </g>
            </g>
            <g id="L'OreÌal_logo" transform="translate(337.000000, 2.000000)">
                <polyline id="polyline3" points="228 71 282 71 282 64.3377505 237.257352 64.3377505 237.257352 43.0196089 270.864292 43.0196089 270.864292 36.2786381 237.257352 36.2786381 237.257352 16.6379463 282 16.6379463 282 10 228 10 228 71"></polyline>
                <polyline id="polyline5" points="256.32664 1 249 9 272 1 256.32664 1"></polyline>
                <polyline id="polyline7" points="372.50378 64.3377505 372.50378 10 364 10 364 71 419 71 419 64.3377505 372.50378 64.3377505"></polyline>
                <path d="M316.598612,10 L286,71 L296.34287,71 L304.170907,55.2113669 L340.869227,55.2113669 L348.763978,71 L359,71 L328.376891,10 L316.598612,10 Z M308.04401,47.5653658 L322.462734,18.4289872 L337.050329,47.5653658 L308.04401,47.5653658 Z" id="path9" fill-rule="nonzero"></path>
                <path d="M198.374572,45.4927246 C212.293128,41.7637669 213.645465,31.3656914 213.574954,27.648357 C212.744082,16.751009 205.43146,10 192.291683,10 L154,10 L154,71 L162.729157,71 L162.729157,45.4113617 L187.657952,45.4113617 L205.997653,71 L217,71 C217,71 203.801814,53.7785342 198.374572,45.4927246 Z M191.099836,38.203875 L162.729157,38.203875 L162.729157,17.2201666 L192.088569,17.2201666 C198.848153,17.2201666 202.650485,20.3885655 204.020188,24.4133884 C204.926307,27.1723311 204.34538,30.7940377 202.846232,33.2597568 C200.392555,37.3363561 195.731462,38.203875 191.099836,38.203875 Z" id="path11" fill-rule="nonzero"></path>
                <path d="M102.011197,0 C77.6226984,0 61,17.3355901 61,38.3176555 C61,60.4065272 79.3622044,76 102.011197,76 C124.645087,76 143,60.6291486 143,38.3176555 C143,17.3355901 126.171582,0 102.011197,0 Z M101.718502,68.4749772 C84.845294,68.4749772 70.9427871,54.8052892 70.9427871,38.3381325 C70.9427871,21.8935529 84.1890731,7.56912703 102.37264,7.56912703 C120.105705,7.56912703 133.141063,21.8935529 133.141063,38.3381325 C133.141063,54.8047641 118.584419,68.4749772 101.718502,68.4749772 Z" id="path13" fill-rule="nonzero"></path>
                <polyline id="polyline15" points="39 31 45.394041 31 57 10 47.6605336 10 39 31"></polyline>
                <polyline id="polyline17" points="8.50884926 64.3377505 8.50884926 10 0 10 0 71 55 71 55 64.3377505 8.50884926 64.3377505"></polyline>
            </g>
            <g id="Group-26" transform="translate(880.000000, 3.000000)">
                <polygon id="path5122" points="207.00554 20.8260013 187.372195 20.8260013 187.372195 29.5871381 207.00554 29.5679885 207.00554 41.4168079 187.372195 41.4168079 187.372195 51.1277652 207.00554 51.1277652 207.00554 67.4097186 167 67.4097186 167 5 207.00554 5"></polygon>
                <path d="M249.551422,0 C236.911111,22.324995 212,67.5556011 212,67.5556011 L233.348633,67.5556011 L236.805578,60.7735762 L262.270859,60.7735762 L265.648639,67.5556011 L287.129213,67.5556011 L249.551422,0 Z M241.740317,50.4555764 C241.740317,50.5130252 249.551422,34.463931 249.551422,34.463931 C249.551422,34.463931 257.20418,50.5082378 257.20418,50.4555764 L241.740317,50.4555764 Z" id="path5124"></path>
                <path d="M145.690281,5 L167.435199,5 C167.54006,5 131.704136,72.0542644 131.704136,72.0542644 L96,5 L117.770786,5 C117.770786,5 130.595814,31.0195287 131.704136,32.9722141 L145.690281,5 Z" id="path5126"></path>
                <path d="M90.398602,67.4099101 L70,67.4099101 L70,5 C70,5 90.398602,5.07659843 90.398602,5 L90.398602,67.4099101 Z" id="path5128"></path>
                <polygon id="path5130" points="33.1708537 28.8693732 33.1708537 4.7234421 53.5694557 4.7234421 53.5694557 71.7777064 20.4250093 42.9609946 20.4250093 67.1333522 0 67.1333522 0 0"></polygon>
            </g>
            <g id="Jeep_logo" transform="translate(1254.000000, 0.000000)">
                <g id="g2993" transform="translate(90.566060, 37.887632) scale(-1, 1) rotate(-180.000000) translate(-90.566060, -37.887632) translate(0.066060, 0.887632)">
                    <g id="g3045" transform="translate(135.809031, 0.074761)" fill-rule="nonzero">
                        <path d="M14.6186618,34.110211 C14.4724752,26.0443643 16.2145324,21.7720604 22.8635871,21.7720604 C29.5016778,21.7720604 30.4543273,29.0497175 30.4543273,34.5877539 C30.4543273,40.129445 29.1946859,45.5091125 22.220366,45.5091125 C17.941971,45.5091125 14.7831218,42.1845852 14.6186618,34.110211 Z M1.1670565,0.404449644 L1.1670565,55.0027152 L14.7831218,55.0027152 C14.7831218,55.0027152 14.7831218,54.2120892 14.7831218,52.7879879 C14.7831218,49.8338 15.9745427,51.0520218 16.9345015,52.2032414 C17.0953068,52.3957205 20.1298974,56.1100788 26.9641218,56.1100788 C33.7776364,56.1100788 44.3773845,51.3638866 44.3773845,34.5877539 C44.3773845,21.6112551 38.053595,12.1176524 27.1322364,12.1176524 C21.1142206,12.1176524 17.6349791,14.4870939 16.8394802,15.443398 C16.0427631,16.3863017 14.9366177,16.5507616 14.9366177,15.443398 C14.9366177,14.3335979 14.9366177,0.404449644 14.9366177,0.404449644 L1.1670565,0.404449644 Z" id="path3047"></path>
                    </g>
                    <g id="g3049" transform="translate(0.062556, 13.104861)">
                        <path d="M31.6737673,59.6928692 L46.3923233,59.6928692 C46.3923233,59.6928692 46.3923233,27.7291651 46.3923233,21.0801104 C46.3923233,14.438365 43.5404661,0.507998499 23.1291595,0.507998499 C2.71541644,0.507998499 0.500689168,13.4918067 0.500689168,20.7658091 L0.500689168,27.8863157 L14.7441387,27.8863157 C14.7441387,27.8863157 14.7441387,25.1964819 14.7441387,20.9266144 C14.7441387,16.6543105 17.5935595,12.6999625 22.9707906,12.6999625 C28.3504582,12.6999625 31.6737673,15.7053157 31.6737673,20.7658091 C31.6737673,25.8299572 31.6737673,59.6928692 31.6737673,59.6928692" id="path3051"></path>
                    </g>
                    <g id="g3053" transform="translate(47.998384, 12.023082)" fill-rule="nonzero">
                        <path d="M29.2373237,28.0191019 C29.2373237,31.979541 27.0262511,35.7767384 21.962103,35.7767384 C17.0563237,35.7767384 15.3142665,32.2987151 15.3142665,28.0191019 L29.2373237,28.0191019 Z M20.5428745,44.6368657 C32.1013632,44.6368657 42.2247865,40.2074112 42.2247865,19.7924499 L14.850124,19.7924499 C14.850124,13.3042005 17.5375213,10.6131485 22.2849318,10.6131485 C27.0335604,10.6131485 28.6148123,14.4140006 28.6148123,14.4140006 L42.0700723,14.4140006 C42.0700723,8.55679006 33.9981345,0.644439343 21.8098252,0.801589957 C7.88798628,0.801589957 1.08178098,11.088255 1.08178098,21.6916577 C1.08178098,32.2987151 7.09126921,44.6368657 20.5428745,44.6368657 Z" id="path3055"></path>
                    </g>
                    <g id="g3057" transform="translate(91.760558, 12.023082)" fill-rule="nonzero">
                        <path d="M29.2373237,28.0191019 C29.2373237,31.979541 27.0238146,35.7767384 21.9596665,35.7767384 C17.0563237,35.7767384 15.3106118,32.2987151 15.3106118,28.0191019 L29.2373237,28.0191019 Z M20.5428745,44.6368657 C32.100145,44.6368657 42.2211318,40.2074112 42.2211318,19.7924499 L14.8476875,19.7924499 C14.8476875,13.3042005 17.5375213,10.6131485 22.2885864,10.6131485 C27.0323422,10.6131485 28.6160305,14.4140006 28.6160305,14.4140006 L42.0712905,14.4140006 C42.0712905,8.55679006 33.9981345,0.644439343 21.8134799,0.801589957 C7.88433162,0.801589957 1.07812631,11.088255 1.07812631,21.6916577 C1.07812631,32.2987151 7.09492388,44.6368657 20.5428745,44.6368657 Z" id="path3059"></path>
                    </g>
                    <g id="g3061" transform="translate(169.955788, 2.151830)" fill-rule="nonzero">
                        <path d="M1.21822182,4.87288728 C1.21822182,7.03523101 2.97855235,8.79190687 5.14820541,8.79190687 C7.31054914,8.79190687 9.06722501,7.03523101 9.06722501,4.87288728 C9.06722501,2.71419821 7.31054914,0.946558354 5.14820541,0.946558354 C2.97855235,0.946558354 1.21822182,2.71419821 1.21822182,4.87288728 Z M0.765043303,4.87288728 C0.765043303,2.45349875 2.72394399,0.489725172 5.14820541,0.489725172 C7.55662995,0.489725172 9.52649463,2.45349875 9.52649463,4.87288728 C9.52649463,7.29227581 7.55662995,9.25604939 5.14820541,9.25604939 C2.72394399,9.25604939 0.765043303,7.29227581 0.765043303,4.87288728 Z" id="path3063"></path>
                    </g>
                    <g id="g3065" transform="translate(173.204781, 4.783188)" fill-rule="nonzero">
                        <path d="M3.65466546,0 L2.74465376,2.14894329 C3.03337233,2.24883748 3.12961186,2.31949435 3.2831078,2.48395429 C3.48289618,2.69836133 3.60837303,3.037027 3.60837303,3.3440189 C3.60837303,4.11880797 3.01266256,4.64629802 2.14894329,4.64629802 L0.32161056,4.64629802 L0.32161056,0 L0.86371927,0 L0.86371927,2.01250245 L2.18427172,2.01250245 L3.05164566,0 L3.65466546,0 Z M0.849100608,2.48395429 L0.849100608,4.14073597 L2.13797929,4.14073597 C2.67643334,4.14073597 3.01875367,3.83374407 3.01875367,3.35863756 C3.01875367,2.81896529 2.65572357,2.48395429 2.06244954,2.48395429 L0.849100608,2.48395429 Z" id="path3067"></path>
                    </g>
                </g>
            </g>
        </g>
    </g>
</svg>